<mxfile host="65bd71144e">
    <diagram id="V3u9dYbEmnTnieBDZ96-" name="采购与付款循环">
        <mxGraphModel dx="1053" dy="599" grid="1" gridSize="10" guides="1" tooltips="1" connect="1" arrows="1" fold="1" page="1" pageScale="1" pageWidth="827" pageHeight="1169" math="0" shadow="0">
            <root>
                <mxCell id="0"/>
                <mxCell id="1" parent="0"/>
                <mxCell id="yXBirGXlF7qBreFOi15v-1" value="采购与付款循环总流程图" style="swimlane;childLayout=stackLayout;resizeParent=1;resizeParentMax=0;startSize=20;html=1;fontFamily=仿宋;fillColor=#dae8fc;strokeColor=#6c8ebf;" parent="1" vertex="1">
                    <mxGeometry x="30" y="20" width="1200" height="960" as="geometry"/>
                </mxCell>
                <mxCell id="yXBirGXlF7qBreFOi15v-2" value="供应商" style="swimlane;startSize=20;html=1;fontFamily=仿宋;fillColor=#dae8fc;strokeColor=#6c8ebf;" parent="yXBirGXlF7qBreFOi15v-1" vertex="1">
                    <mxGeometry y="20" width="240" height="940" as="geometry"/>
                </mxCell>
                <mxCell id="5QdsJJsC6i6Dq2nkjyHS-8" value="提交资料" style="verticalLabelPosition=bottom;verticalAlign=top;html=1;shape=process;whiteSpace=wrap;rounded=1;size=0.14;arcSize=6;align=center;fontFamily=仿宋;" parent="yXBirGXlF7qBreFOi15v-2" vertex="1">
                    <mxGeometry x="60" y="140" width="100" height="60" as="geometry"/>
                </mxCell>
                <mxCell id="5QdsJJsC6i6Dq2nkjyHS-14" value="" style="edgeStyle=none;html=1;" parent="yXBirGXlF7qBreFOi15v-2" source="5QdsJJsC6i6Dq2nkjyHS-12" target="5QdsJJsC6i6Dq2nkjyHS-8" edge="1">
                    <mxGeometry relative="1" as="geometry"/>
                </mxCell>
                <mxCell id="5QdsJJsC6i6Dq2nkjyHS-12" value="开始" style="strokeWidth=2;html=1;shape=mxgraph.flowchart.start_1;whiteSpace=wrap;fontFamily=仿宋;" parent="yXBirGXlF7qBreFOi15v-2" vertex="1">
                    <mxGeometry x="60" y="50" width="100" height="60" as="geometry"/>
                </mxCell>
                <mxCell id="OwypGlZA34XRb2bOiJWG-4" style="edgeStyle=none;html=1;entryX=0.5;entryY=0;entryDx=0;entryDy=0;" parent="yXBirGXlF7qBreFOi15v-2" source="OwypGlZA34XRb2bOiJWG-1" target="OwypGlZA34XRb2bOiJWG-3" edge="1">
                    <mxGeometry relative="1" as="geometry"/>
                </mxCell>
                <mxCell id="OwypGlZA34XRb2bOiJWG-1" value="备货" style="verticalLabelPosition=bottom;verticalAlign=top;html=1;shape=process;whiteSpace=wrap;rounded=1;size=0.14;arcSize=6;align=center;fontFamily=仿宋;" parent="yXBirGXlF7qBreFOi15v-2" vertex="1">
                    <mxGeometry x="60" y="360" width="100" height="60" as="geometry"/>
                </mxCell>
                <mxCell id="OwypGlZA34XRb2bOiJWG-8" style="edgeStyle=none;html=1;entryX=0.5;entryY=0;entryDx=0;entryDy=0;" parent="yXBirGXlF7qBreFOi15v-2" source="OwypGlZA34XRb2bOiJWG-3" target="OwypGlZA34XRb2bOiJWG-7" edge="1">
                    <mxGeometry relative="1" as="geometry"/>
                </mxCell>
                <mxCell id="OwypGlZA34XRb2bOiJWG-3" value="发货" style="verticalLabelPosition=bottom;verticalAlign=top;html=1;shape=process;whiteSpace=wrap;rounded=1;size=0.14;arcSize=6;align=center;fontFamily=仿宋;" parent="yXBirGXlF7qBreFOi15v-2" vertex="1">
                    <mxGeometry x="60" y="485" width="100" height="60" as="geometry"/>
                </mxCell>
                <mxCell id="pCf9ow2HLNuT5-0FWcJX-4" style="edgeStyle=none;html=1;entryX=0.5;entryY=0;entryDx=0;entryDy=0;" parent="yXBirGXlF7qBreFOi15v-2" source="OwypGlZA34XRb2bOiJWG-7" target="pCf9ow2HLNuT5-0FWcJX-3" edge="1">
                    <mxGeometry relative="1" as="geometry"/>
                </mxCell>
                <mxCell id="OwypGlZA34XRb2bOiJWG-7" value="开具发票" style="verticalLabelPosition=bottom;verticalAlign=top;html=1;shape=process;whiteSpace=wrap;rounded=1;size=0.14;arcSize=6;align=center;fontFamily=仿宋;" parent="yXBirGXlF7qBreFOi15v-2" vertex="1">
                    <mxGeometry x="60" y="600" width="100" height="60" as="geometry"/>
                </mxCell>
                <mxCell id="pCf9ow2HLNuT5-0FWcJX-3" value="发出对账单" style="verticalLabelPosition=bottom;verticalAlign=top;html=1;shape=process;whiteSpace=wrap;rounded=1;size=0.14;arcSize=6;align=center;fontFamily=仿宋;" parent="yXBirGXlF7qBreFOi15v-2" vertex="1">
                    <mxGeometry x="60" y="720" width="100" height="60" as="geometry"/>
                </mxCell>
                <mxCell id="yXBirGXlF7qBreFOi15v-5" value="采购部" style="swimlane;startSize=20;html=1;fontFamily=仿宋;fillColor=#dae8fc;strokeColor=#6c8ebf;" parent="yXBirGXlF7qBreFOi15v-1" vertex="1">
                    <mxGeometry x="240" y="20" width="240" height="940" as="geometry"/>
                </mxCell>
                <mxCell id="5QdsJJsC6i6Dq2nkjyHS-7" value="" style="edgeStyle=none;html=1;" parent="yXBirGXlF7qBreFOi15v-5" source="5QdsJJsC6i6Dq2nkjyHS-1" target="5QdsJJsC6i6Dq2nkjyHS-6" edge="1">
                    <mxGeometry relative="1" as="geometry"/>
                </mxCell>
                <mxCell id="5QdsJJsC6i6Dq2nkjyHS-1" value="维护供应商清单" style="verticalLabelPosition=bottom;verticalAlign=top;html=1;shape=process;whiteSpace=wrap;rounded=1;size=0.14;arcSize=6;align=center;fontFamily=仿宋;fillColor=#dae8fc;strokeColor=#6c8ebf;" parent="yXBirGXlF7qBreFOi15v-5" vertex="1">
                    <mxGeometry x="70" y="140" width="100" height="60" as="geometry"/>
                </mxCell>
                <mxCell id="5QdsJJsC6i6Dq2nkjyHS-6" value="制定采购计划" style="verticalLabelPosition=bottom;verticalAlign=top;html=1;shape=process;whiteSpace=wrap;rounded=1;size=0.14;arcSize=6;align=center;fontFamily=仿宋;fillColor=#dae8fc;strokeColor=#6c8ebf;" parent="yXBirGXlF7qBreFOi15v-5" vertex="1">
                    <mxGeometry x="70" y="250" width="100" height="60" as="geometry"/>
                </mxCell>
                <mxCell id="5QdsJJsC6i6Dq2nkjyHS-17" value="填写订购单" style="verticalLabelPosition=bottom;verticalAlign=top;html=1;shape=process;whiteSpace=wrap;rounded=1;size=0.14;arcSize=6;align=center;fontFamily=仿宋;fillColor=#dae8fc;strokeColor=#6c8ebf;" parent="yXBirGXlF7qBreFOi15v-5" vertex="1">
                    <mxGeometry x="70" y="360" width="100" height="60" as="geometry"/>
                </mxCell>
                <mxCell id="-vgHLyv9YAfvu7wiHNeA-3" value="付款申请" style="verticalLabelPosition=bottom;verticalAlign=top;html=1;shape=process;whiteSpace=wrap;rounded=1;size=0.14;arcSize=6;align=center;fontFamily=仿宋;fillColor=#dae8fc;strokeColor=#6c8ebf;" parent="yXBirGXlF7qBreFOi15v-5" vertex="1">
                    <mxGeometry x="70" y="480" width="100" height="60" as="geometry"/>
                </mxCell>
                <mxCell id="zV210Tk6A8i61ttg8jx6-1" value="退货" style="verticalLabelPosition=bottom;verticalAlign=top;html=1;shape=process;whiteSpace=wrap;rounded=1;size=0.14;arcSize=6;align=center;fontFamily=仿宋;fillColor=#dae8fc;strokeColor=#6c8ebf;" parent="yXBirGXlF7qBreFOi15v-5" vertex="1">
                    <mxGeometry x="70" y="570" width="100" height="60" as="geometry"/>
                </mxCell>
                <mxCell id="yXBirGXlF7qBreFOi15v-8" value="生产部" style="swimlane;startSize=20;html=1;fontFamily=仿宋;fillColor=#dae8fc;strokeColor=#6c8ebf;" parent="yXBirGXlF7qBreFOi15v-1" vertex="1">
                    <mxGeometry x="480" y="20" width="240" height="940" as="geometry"/>
                </mxCell>
                <mxCell id="5QdsJJsC6i6Dq2nkjyHS-16" value="" style="edgeStyle=none;html=1;" parent="yXBirGXlF7qBreFOi15v-8" source="5QdsJJsC6i6Dq2nkjyHS-3" target="5QdsJJsC6i6Dq2nkjyHS-15" edge="1">
                    <mxGeometry relative="1" as="geometry"/>
                </mxCell>
                <mxCell id="5QdsJJsC6i6Dq2nkjyHS-3" value="确认采购计划" style="verticalLabelPosition=bottom;verticalAlign=top;html=1;shape=process;whiteSpace=wrap;rounded=1;size=0.14;arcSize=6;align=center;fontFamily=仿宋;fillColor=#dae8fc;strokeColor=#6c8ebf;" parent="yXBirGXlF7qBreFOi15v-8" vertex="1">
                    <mxGeometry x="80" y="250" width="100" height="60" as="geometry"/>
                </mxCell>
                <mxCell id="5QdsJJsC6i6Dq2nkjyHS-15" value="填写请购单" style="verticalLabelPosition=bottom;verticalAlign=top;html=1;shape=process;whiteSpace=wrap;rounded=1;size=0.14;arcSize=6;align=center;fontFamily=仿宋;fillColor=#dae8fc;strokeColor=#6c8ebf;" parent="yXBirGXlF7qBreFOi15v-8" vertex="1">
                    <mxGeometry x="80" y="360" width="100" height="60" as="geometry"/>
                </mxCell>
                <mxCell id="nTxdqJBcvUpXTDB7moS7-1" value="仓库" style="swimlane;startSize=20;html=1;fontFamily=仿宋;fillColor=#dae8fc;strokeColor=#6c8ebf;" parent="yXBirGXlF7qBreFOi15v-1" vertex="1">
                    <mxGeometry x="720" y="20" width="240" height="940" as="geometry"/>
                </mxCell>
                <mxCell id="OwypGlZA34XRb2bOiJWG-5" value="合格品入库" style="verticalLabelPosition=bottom;verticalAlign=top;html=1;shape=process;whiteSpace=wrap;rounded=1;size=0.14;arcSize=6;align=center;fontFamily=仿宋;fillColor=#dae8fc;strokeColor=#6c8ebf;" parent="nTxdqJBcvUpXTDB7moS7-1" vertex="1">
                    <mxGeometry x="70" y="360" width="100" height="60" as="geometry"/>
                </mxCell>
                <mxCell id="zV210Tk6A8i61ttg8jx6-4" style="edgeStyle=none;html=1;exitX=0.5;exitY=1;exitDx=0;exitDy=0;entryX=0.5;entryY=0;entryDx=0;entryDy=0;" parent="nTxdqJBcvUpXTDB7moS7-1" source="zV210Tk6A8i61ttg8jx6-3" target="OwypGlZA34XRb2bOiJWG-5" edge="1">
                    <mxGeometry relative="1" as="geometry"/>
                </mxCell>
                <mxCell id="zV210Tk6A8i61ttg8jx6-3" value="验收" style="verticalLabelPosition=bottom;verticalAlign=top;html=1;shape=process;whiteSpace=wrap;rounded=1;size=0.14;arcSize=6;align=center;fontFamily=仿宋;fillColor=#dae8fc;strokeColor=#6c8ebf;" parent="nTxdqJBcvUpXTDB7moS7-1" vertex="1">
                    <mxGeometry x="70" y="250" width="100" height="60" as="geometry"/>
                </mxCell>
                <mxCell id="5QdsJJsC6i6Dq2nkjyHS-4" value="财务" style="swimlane;startSize=20;html=1;fontFamily=仿宋;fillColor=#dae8fc;strokeColor=#6c8ebf;" parent="yXBirGXlF7qBreFOi15v-1" vertex="1">
                    <mxGeometry x="960" y="20" width="240" height="940" as="geometry"/>
                </mxCell>
                <mxCell id="-vgHLyv9YAfvu7wiHNeA-8" style="edgeStyle=none;html=1;entryX=0.5;entryY=0;entryDx=0;entryDy=0;" parent="5QdsJJsC6i6Dq2nkjyHS-4" source="OwypGlZA34XRb2bOiJWG-9" target="-vgHLyv9YAfvu7wiHNeA-7" edge="1">
                    <mxGeometry relative="1" as="geometry"/>
                </mxCell>
                <mxCell id="OwypGlZA34XRb2bOiJWG-9" value="确认应付" style="verticalLabelPosition=bottom;verticalAlign=top;html=1;shape=process;whiteSpace=wrap;rounded=1;size=0.14;arcSize=6;align=center;fontFamily=仿宋;fillColor=#dae8fc;strokeColor=#6c8ebf;" parent="5QdsJJsC6i6Dq2nkjyHS-4" vertex="1">
                    <mxGeometry x="80" y="485" width="100" height="60" as="geometry"/>
                </mxCell>
                <mxCell id="5PtplSCZy5P2EVHRhfhk-7" style="edgeStyle=none;html=1;entryX=0.5;entryY=0;entryDx=0;entryDy=0;" parent="5QdsJJsC6i6Dq2nkjyHS-4" source="-vgHLyv9YAfvu7wiHNeA-7" target="5PtplSCZy5P2EVHRhfhk-6" edge="1">
                    <mxGeometry relative="1" as="geometry"/>
                </mxCell>
                <mxCell id="-vgHLyv9YAfvu7wiHNeA-7" value="确认打款" style="verticalLabelPosition=bottom;verticalAlign=top;html=1;shape=process;whiteSpace=wrap;rounded=1;size=0.14;arcSize=6;align=center;fontFamily=仿宋;fillColor=#dae8fc;strokeColor=#6c8ebf;" parent="5QdsJJsC6i6Dq2nkjyHS-4" vertex="1">
                    <mxGeometry x="80" y="600" width="100" height="60" as="geometry"/>
                </mxCell>
                <mxCell id="pCf9ow2HLNuT5-0FWcJX-6" style="edgeStyle=none;html=1;entryX=0.5;entryY=0;entryDx=0;entryDy=0;entryPerimeter=0;" parent="5QdsJJsC6i6Dq2nkjyHS-4" source="5PtplSCZy5P2EVHRhfhk-6" target="pCf9ow2HLNuT5-0FWcJX-2" edge="1">
                    <mxGeometry relative="1" as="geometry"/>
                </mxCell>
                <mxCell id="5PtplSCZy5P2EVHRhfhk-6" value="收到发票、对账单" style="verticalLabelPosition=bottom;verticalAlign=top;html=1;shape=process;whiteSpace=wrap;rounded=1;size=0.14;arcSize=6;align=center;fontFamily=仿宋;fillColor=#dae8fc;strokeColor=#6c8ebf;" parent="5QdsJJsC6i6Dq2nkjyHS-4" vertex="1">
                    <mxGeometry x="80" y="720" width="100" height="60" as="geometry"/>
                </mxCell>
                <mxCell id="pCf9ow2HLNuT5-0FWcJX-2" value="结束" style="strokeWidth=2;html=1;shape=mxgraph.flowchart.start_1;whiteSpace=wrap;fontFamily=仿宋;" parent="5QdsJJsC6i6Dq2nkjyHS-4" vertex="1">
                    <mxGeometry x="80" y="850" width="100" height="60" as="geometry"/>
                </mxCell>
                <mxCell id="YUo4zxVsS_Gds2yEYQPd-1" value="采购价格审批" style="verticalLabelPosition=bottom;verticalAlign=top;html=1;shape=process;whiteSpace=wrap;rounded=1;size=0.14;arcSize=6;align=center;fontFamily=仿宋;fillColor=#dae8fc;strokeColor=#6c8ebf;" parent="5QdsJJsC6i6Dq2nkjyHS-4" vertex="1">
                    <mxGeometry x="70" y="130" width="100" height="60" as="geometry"/>
                </mxCell>
                <mxCell id="5QdsJJsC6i6Dq2nkjyHS-11" style="edgeStyle=none;html=1;entryX=0;entryY=0.5;entryDx=0;entryDy=0;" parent="yXBirGXlF7qBreFOi15v-1" source="5QdsJJsC6i6Dq2nkjyHS-6" target="5QdsJJsC6i6Dq2nkjyHS-3" edge="1">
                    <mxGeometry relative="1" as="geometry"/>
                </mxCell>
                <mxCell id="5QdsJJsC6i6Dq2nkjyHS-13" style="edgeStyle=none;html=1;entryX=0;entryY=0.5;entryDx=0;entryDy=0;" parent="yXBirGXlF7qBreFOi15v-1" source="5QdsJJsC6i6Dq2nkjyHS-8" target="5QdsJJsC6i6Dq2nkjyHS-1" edge="1">
                    <mxGeometry relative="1" as="geometry"/>
                </mxCell>
                <mxCell id="5QdsJJsC6i6Dq2nkjyHS-18" value="" style="edgeStyle=none;html=1;" parent="yXBirGXlF7qBreFOi15v-1" source="5QdsJJsC6i6Dq2nkjyHS-15" target="5QdsJJsC6i6Dq2nkjyHS-17" edge="1">
                    <mxGeometry relative="1" as="geometry"/>
                </mxCell>
                <mxCell id="OwypGlZA34XRb2bOiJWG-2" style="edgeStyle=none;html=1;" parent="yXBirGXlF7qBreFOi15v-1" source="5QdsJJsC6i6Dq2nkjyHS-17" target="OwypGlZA34XRb2bOiJWG-1" edge="1">
                    <mxGeometry relative="1" as="geometry"/>
                </mxCell>
                <mxCell id="OwypGlZA34XRb2bOiJWG-6" style="edgeStyle=none;html=1;entryX=0;entryY=0.5;entryDx=0;entryDy=0;" parent="yXBirGXlF7qBreFOi15v-1" source="OwypGlZA34XRb2bOiJWG-3" target="zV210Tk6A8i61ttg8jx6-3" edge="1">
                    <mxGeometry relative="1" as="geometry">
                        <Array as="points">
                            <mxPoint x="220" y="535"/>
                            <mxPoint x="220" y="480"/>
                            <mxPoint x="530" y="480"/>
                            <mxPoint x="740" y="480"/>
                            <mxPoint x="740" y="410"/>
                            <mxPoint x="740" y="300"/>
                        </Array>
                    </mxGeometry>
                </mxCell>
                <mxCell id="y4tuWPzxVAyvcXOM0LUp-1" style="edgeStyle=none;html=1;" parent="yXBirGXlF7qBreFOi15v-1" source="OwypGlZA34XRb2bOiJWG-5" edge="1">
                    <mxGeometry relative="1" as="geometry">
                        <mxPoint x="1090" y="500" as="targetPoint"/>
                        <Array as="points">
                            <mxPoint x="1090" y="410"/>
                        </Array>
                    </mxGeometry>
                </mxCell>
                <mxCell id="-vgHLyv9YAfvu7wiHNeA-5" style="edgeStyle=none;html=1;exitX=0.5;exitY=1;exitDx=0;exitDy=0;entryX=1;entryY=0.5;entryDx=0;entryDy=0;" parent="yXBirGXlF7qBreFOi15v-1" source="OwypGlZA34XRb2bOiJWG-5" target="-vgHLyv9YAfvu7wiHNeA-3" edge="1">
                    <mxGeometry relative="1" as="geometry">
                        <Array as="points">
                            <mxPoint x="840" y="530"/>
                        </Array>
                    </mxGeometry>
                </mxCell>
                <mxCell id="-vgHLyv9YAfvu7wiHNeA-6" style="edgeStyle=none;html=1;entryX=0;entryY=0.75;entryDx=0;entryDy=0;" parent="yXBirGXlF7qBreFOi15v-1" target="OwypGlZA34XRb2bOiJWG-9" edge="1">
                    <mxGeometry relative="1" as="geometry">
                        <mxPoint x="410" y="550" as="sourcePoint"/>
                        <mxPoint x="1030" y="545" as="targetPoint"/>
                    </mxGeometry>
                </mxCell>
                <mxCell id="5PtplSCZy5P2EVHRhfhk-3" style="edgeStyle=none;html=1;exitX=0;exitY=1;exitDx=0;exitDy=0;entryX=1;entryY=1;entryDx=0;entryDy=0;" parent="yXBirGXlF7qBreFOi15v-1" source="-vgHLyv9YAfvu7wiHNeA-7" target="OwypGlZA34XRb2bOiJWG-7" edge="1">
                    <mxGeometry relative="1" as="geometry">
                        <Array as="points"/>
                    </mxGeometry>
                </mxCell>
                <mxCell id="pCf9ow2HLNuT5-0FWcJX-5" style="edgeStyle=none;html=1;entryX=0;entryY=0.5;entryDx=0;entryDy=0;" parent="yXBirGXlF7qBreFOi15v-1" source="pCf9ow2HLNuT5-0FWcJX-3" target="5PtplSCZy5P2EVHRhfhk-6" edge="1">
                    <mxGeometry relative="1" as="geometry"/>
                </mxCell>
                <mxCell id="zV210Tk6A8i61ttg8jx6-5" style="edgeStyle=none;html=1;entryX=1;entryY=0.25;entryDx=0;entryDy=0;" parent="yXBirGXlF7qBreFOi15v-1" target="OwypGlZA34XRb2bOiJWG-7" edge="1">
                    <mxGeometry relative="1" as="geometry">
                        <mxPoint x="140" y="599.7142857142858" as="targetPoint"/>
                        <mxPoint x="310" y="635" as="sourcePoint"/>
                        <Array as="points"/>
                    </mxGeometry>
                </mxCell>
                <mxCell id="zV210Tk6A8i61ttg8jx6-2" style="edgeStyle=none;html=1;exitX=1;exitY=0.5;exitDx=0;exitDy=0;" parent="yXBirGXlF7qBreFOi15v-1" source="zV210Tk6A8i61ttg8jx6-3" edge="1">
                    <mxGeometry relative="1" as="geometry">
                        <mxPoint x="410" y="640" as="targetPoint"/>
                        <Array as="points">
                            <mxPoint x="920" y="300"/>
                            <mxPoint x="920" y="390"/>
                            <mxPoint x="920" y="640"/>
                        </Array>
                    </mxGeometry>
                </mxCell>
                <mxCell id="YUo4zxVsS_Gds2yEYQPd-2" style="edgeStyle=none;html=1;exitX=0.5;exitY=0;exitDx=0;exitDy=0;entryX=0;entryY=0.5;entryDx=0;entryDy=0;" parent="yXBirGXlF7qBreFOi15v-1" source="5QdsJJsC6i6Dq2nkjyHS-3" target="YUo4zxVsS_Gds2yEYQPd-1" edge="1">
                    <mxGeometry relative="1" as="geometry">
                        <Array as="points">
                            <mxPoint x="610" y="180"/>
                        </Array>
                    </mxGeometry>
                </mxCell>
                <mxCell id="YUo4zxVsS_Gds2yEYQPd-3" style="edgeStyle=none;html=1;entryX=0.75;entryY=0;entryDx=0;entryDy=0;" parent="yXBirGXlF7qBreFOi15v-1" target="5QdsJJsC6i6Dq2nkjyHS-3" edge="1">
                    <mxGeometry relative="1" as="geometry">
                        <mxPoint x="1030" y="200" as="sourcePoint"/>
                        <mxPoint x="640" y="260" as="targetPoint"/>
                        <Array as="points">
                            <mxPoint x="860" y="200"/>
                            <mxPoint x="635" y="200"/>
                        </Array>
                    </mxGeometry>
                </mxCell>
                <mxCell id="-vgHLyv9YAfvu7wiHNeA-1" value="会计分录" style="swimlane;fontStyle=0;childLayout=stackLayout;horizontal=1;startSize=30;horizontalStack=0;resizeParent=1;resizeParentMax=0;resizeLast=0;collapsible=1;marginBottom=0;whiteSpace=wrap;html=1;fontFamily=仿宋;" parent="1" vertex="1">
                    <mxGeometry x="1280" y="520" width="140" height="80" as="geometry"/>
                </mxCell>
                <mxCell id="-vgHLyv9YAfvu7wiHNeA-2" value="借：原材料or库存商品&lt;br&gt;贷：应付账款（暂估）" style="text;strokeColor=#666666;fillColor=#f5f5f5;align=left;verticalAlign=middle;spacingLeft=4;spacingRight=4;overflow=hidden;points=[[0,0.5],[1,0.5]];portConstraint=eastwest;rotatable=0;whiteSpace=wrap;html=1;fontFamily=仿宋;fontColor=#333333;" parent="-vgHLyv9YAfvu7wiHNeA-1" vertex="1">
                    <mxGeometry y="30" width="140" height="50" as="geometry"/>
                </mxCell>
                <mxCell id="5PtplSCZy5P2EVHRhfhk-1" value="可能涉及的会计处理" style="swimlane;fontStyle=0;childLayout=stackLayout;horizontal=1;startSize=30;horizontalStack=0;resizeParent=1;resizeParentMax=0;resizeLast=0;collapsible=1;marginBottom=0;whiteSpace=wrap;html=1;fontFamily=仿宋;" parent="1" vertex="1">
                    <mxGeometry x="1480" y="520" width="140" height="100" as="geometry"/>
                </mxCell>
                <mxCell id="5PtplSCZy5P2EVHRhfhk-2" value="1.计划成本法 or 实际成本法&lt;br&gt;2.货到票未到，票到货未到" style="text;strokeColor=none;fillColor=none;align=left;verticalAlign=middle;spacingLeft=4;spacingRight=4;overflow=hidden;points=[[0,0.5],[1,0.5]];portConstraint=eastwest;rotatable=0;whiteSpace=wrap;html=1;fontFamily=仿宋;" parent="5PtplSCZy5P2EVHRhfhk-1" vertex="1">
                    <mxGeometry y="30" width="140" height="70" as="geometry"/>
                </mxCell>
                <mxCell id="5PtplSCZy5P2EVHRhfhk-4" value="会计分录" style="swimlane;fontStyle=0;childLayout=stackLayout;horizontal=1;startSize=30;horizontalStack=0;resizeParent=1;resizeParentMax=0;resizeLast=0;collapsible=1;marginBottom=0;whiteSpace=wrap;html=1;fontFamily=仿宋;" parent="1" vertex="1">
                    <mxGeometry x="1280" y="640" width="160" height="180" as="geometry"/>
                </mxCell>
                <mxCell id="5PtplSCZy5P2EVHRhfhk-5" value="冲销应付暂估&lt;br&gt;借：原材料 负数&lt;br&gt;贷&amp;nbsp; 应付账款（暂估） 负数" style="text;strokeColor=#666666;fillColor=#f5f5f5;align=left;verticalAlign=middle;spacingLeft=4;spacingRight=4;overflow=hidden;points=[[0,0.5],[1,0.5]];portConstraint=eastwest;rotatable=0;whiteSpace=wrap;html=1;fontFamily=仿宋;fontColor=#333333;" parent="5PtplSCZy5P2EVHRhfhk-4" vertex="1">
                    <mxGeometry y="30" width="160" height="50" as="geometry"/>
                </mxCell>
                <mxCell id="5PtplSCZy5P2EVHRhfhk-8" value="借：原材料or库存商品&lt;br&gt;&amp;nbsp; &amp;nbsp; 进项税&lt;br&gt;贷&amp;nbsp; 应付账款" style="text;align=left;verticalAlign=middle;spacingLeft=4;spacingRight=4;overflow=hidden;points=[[0,0.5],[1,0.5]];portConstraint=eastwest;rotatable=0;whiteSpace=wrap;html=1;fontFamily=仿宋;" parent="5PtplSCZy5P2EVHRhfhk-4" vertex="1">
                    <mxGeometry y="80" width="160" height="50" as="geometry"/>
                </mxCell>
                <mxCell id="5PtplSCZy5P2EVHRhfhk-9" value="借：应付账款&lt;br&gt;贷&amp;nbsp; 银行存款or库存现金" style="text;strokeColor=none;fillColor=none;align=left;verticalAlign=middle;spacingLeft=4;spacingRight=4;overflow=hidden;points=[[0,0.5],[1,0.5]];portConstraint=eastwest;rotatable=0;whiteSpace=wrap;html=1;fontFamily=仿宋;" parent="5PtplSCZy5P2EVHRhfhk-4" vertex="1">
                    <mxGeometry y="130" width="160" height="50" as="geometry"/>
                </mxCell>
                <mxCell id="pCf9ow2HLNuT5-0FWcJX-1" style="edgeStyle=none;html=1;exitX=0;exitY=0.5;exitDx=0;exitDy=0;" parent="1" source="-vgHLyv9YAfvu7wiHNeA-2" edge="1">
                    <mxGeometry relative="1" as="geometry">
                        <mxPoint x="1280.2352941176473" y="700" as="targetPoint"/>
                        <Array as="points">
                            <mxPoint x="1250" y="575"/>
                            <mxPoint x="1250" y="700"/>
                        </Array>
                    </mxGeometry>
                </mxCell>
            </root>
        </mxGraphModel>
    </diagram>
    <diagram id="MUjaBm9MRk2DfFLAVph3" name="生产与存货循环">
        <mxGraphModel dx="1053" dy="1768" grid="1" gridSize="10" guides="1" tooltips="1" connect="1" arrows="1" fold="1" page="1" pageScale="1" pageWidth="827" pageHeight="1169" math="0" shadow="0">
            <root>
                <mxCell id="0"/>
                <mxCell id="1" style="" parent="0"/>
                <mxCell id="s8eY3lmBnVh6mnitSegQ-1" value="采购与付款循环总流程图" style="swimlane;childLayout=stackLayout;resizeParent=1;resizeParentMax=0;startSize=20;html=1;fontFamily=仿宋;fillColor=#dae8fc;strokeColor=#6c8ebf;" parent="1" vertex="1">
                    <mxGeometry x="30" y="-80" width="1200" height="1500" as="geometry"/>
                </mxCell>
                <mxCell id="s8eY3lmBnVh6mnitSegQ-2" value="研发部" style="swimlane;startSize=20;html=1;fontFamily=仿宋;fillColor=#dae8fc;strokeColor=#6c8ebf;" parent="s8eY3lmBnVh6mnitSegQ-1" vertex="1">
                    <mxGeometry y="20" width="240" height="1480" as="geometry"/>
                </mxCell>
                <mxCell id="s8eY3lmBnVh6mnitSegQ-3" value="制定产品工艺路线&lt;span style=&quot;color: rgba(0, 0, 0, 0); font-family: monospace; font-size: 0px; text-align: start;&quot;&gt;%3CmxGraphModel%3E%3Croot%3E%3CmxCell%20id%3D%220%22%2F%3E%3CmxCell%20id%3D%221%22%20parent%3D%220%22%2F%3E%3CmxCell%20id%3D%222%22%20value%3D%22%E9%87%87%E8%B4%AD%E4%B8%8E%E4%BB%98%E6%AC%BE%E5%BE%AA%E7%8E%AF%E6%80%BB%E6%B5%81%E7%A8%8B%E5%9B%BE%22%20style%3D%22swimlane%3BchildLayout%3DstackLayout%3BresizeParent%3D1%3BresizeParentMax%3D0%3BstartSize%3D20%3Bhtml%3D1%3BfontFamily%3D%E4%BB%BF%E5%AE%8B%3BfillColor%3D%23dae8fc%3BstrokeColor%3D%236c8ebf%3B%22%20vertex%3D%221%22%20parent%3D%221%22%3E%3CmxGeometry%20x%3D%2230%22%20y%3D%2220%22%20width%3D%221200%22%20height%3D%22960%22%20as%3D%22geometry%22%2F%3E%3C%2FmxCell%3E%3CmxCell%20id%3D%223%22%20value%3D%22%E4%BE%9B%E5%BA%94%E5%95%86%22%20style%3D%22swimlane%3BstartSize%3D20%3Bhtml%3D1%3BfontFamily%3D%E4%BB%BF%E5%AE%8B%3BfillColor%3D%23dae8fc%3BstrokeColor%3D%236c8ebf%3B%22%20vertex%3D%221%22%20parent%3D%222%22%3E%3CmxGeometry%20y%3D%2220%22%20width%3D%22240%22%20height%3D%22940%22%20as%3D%22geometry%22%2F%3E%3C%2FmxCell%3E%3CmxCell%20id%3D%224%22%20value%3D%22%E6%8F%90%E4%BA%A4%E8%B5%84%E6%96%99%22%20style%3D%22verticalLabelPosition%3Dbottom%3BverticalAlign%3Dtop%3Bhtml%3D1%3Bshape%3Dprocess%3BwhiteSpace%3Dwrap%3Brounded%3D1%3Bsize%3D0.14%3BarcSize%3D6%3Balign%3Dcenter%3BfontFamily%3D%E4%BB%BF%E5%AE%8B%3B%22%20vertex%3D%221%22%20parent%3D%223%22%3E%3CmxGeometry%20x%3D%2260%22%20y%3D%22140%22%20width%3D%22100%22%20height%3D%2260%22%20as%3D%22geometry%22%2F%3E%3C%2FmxCell%3E%3CmxCell%20id%3D%225%22%20value%3D%22%22%20style%3D%22edgeStyle%3Dnone%3Bhtml%3D1%3B%22%20edge%3D%221%22%20parent%3D%223%22%20source%3D%226%22%20target%3D%224%22%3E%3CmxGeometry%20relative%3D%221%22%20as%3D%22geometry%22%2F%3E%3C%2FmxCell%3E%3CmxCell%20id%3D%226%22%20value%3D%22%E5%BC%80%E5%A7%8B%22%20style%3D%22strokeWidth%3D2%3Bhtml%3D1%3Bshape%3Dmxgraph.flowchart.start_1%3BwhiteSpace%3Dwrap%3BfontFamily%3D%E4%BB%BF%E5%AE%8B%3B%22%20vertex%3D%221%22%20parent%3D%223%22%3E%3CmxGeometry%20x%3D%2260%22%20y%3D%2250%22%20width%3D%22100%22%20height%3D%2260%22%20as%3D%22geometry%22%2F%3E%3C%2FmxCell%3E%3CmxCell%20id%3D%227%22%20style%3D%22edgeStyle%3Dnone%3Bhtml%3D1%3BentryX%3D0.5%3BentryY%3D0%3BentryDx%3D0%3BentryDy%3D0%3B%22%20edge%3D%221%22%20parent%3D%223%22%20source%3D%228%22%20target%3D%2210%22%3E%3CmxGeometry%20relative%3D%221%22%20as%3D%22geometry%22%2F%3E%3C%2FmxCell%3E%3CmxCell%20id%3D%228%22%20value%3D%22%E5%A4%87%E8%B4%A7%22%20style%3D%22verticalLabelPosition%3Dbottom%3BverticalAlign%3Dtop%3Bhtml%3D1%3Bshape%3Dprocess%3BwhiteSpace%3Dwrap%3Brounded%3D1%3Bsize%3D0.14%3BarcSize%3D6%3Balign%3Dcenter%3BfontFamily%3D%E4%BB%BF%E5%AE%8B%3B%22%20vertex%3D%221%22%20parent%3D%223%22%3E%3CmxGeometry%20x%3D%2260%22%20y%3D%22360%22%20width%3D%22100%22%20height%3D%2260%22%20as%3D%22geometry%22%2F%3E%3C%2FmxCell%3E%3CmxCell%20id%3D%229%22%20style%3D%22edgeStyle%3Dnone%3Bhtml%3D1%3BentryX%3D0.5%3BentryY%3D0%3BentryDx%3D0%3BentryDy%3D0%3B%22%20edge%3D%221%22%20parent%3D%223%22%20source%3D%2210%22%20target%3D%2212%22%3E%3CmxGeometry%20relative%3D%221%22%20as%3D%22geometry%22%2F%3E%3C%2FmxCell%3E%3CmxCell%20id%3D%2210%22%20value%3D%22%E5%8F%91%E8%B4%A7%22%20style%3D%22verticalLabelPosition%3Dbottom%3BverticalAlign%3Dtop%3Bhtml%3D1%3Bshape%3Dprocess%3BwhiteSpace%3Dwrap%3Brounded%3D1%3Bsize%3D0.14%3BarcSize%3D6%3Balign%3Dcenter%3BfontFamily%3D%E4%BB%BF%E5%AE%8B%3B%22%20vertex%3D%221%22%20parent%3D%223%22%3E%3CmxGeometry%20x%3D%2260%22%20y%3D%22485%22%20width%3D%22100%22%20height%3D%2260%22%20as%3D%22geometry%22%2F%3E%3C%2FmxCell%3E%3CmxCell%20id%3D%2211%22%20style%3D%22edgeStyle%3Dnone%3Bhtml%3D1%3BentryX%3D0.5%3BentryY%3D0%3BentryDx%3D0%3BentryDy%3D0%3B%22%20edge%3D%221%22%20parent%3D%223%22%20source%3D%2212%22%20target%3D%2213%22%3E%3CmxGeometry%20relative%3D%221%22%20as%3D%22geometry%22%2F%3E%3C%2FmxCell%3E%3CmxCell%20id%3D%2212%22%20value%3D%22%E5%BC%80%E5%85%B7%E5%8F%91%E7%A5%A8%22%20style%3D%22verticalLabelPosition%3Dbottom%3BverticalAlign%3Dtop%3Bhtml%3D1%3Bshape%3Dprocess%3BwhiteSpace%3Dwrap%3Brounded%3D1%3Bsize%3D0.14%3BarcSize%3D6%3Balign%3Dcenter%3BfontFamily%3D%E4%BB%BF%E5%AE%8B%3B%22%20vertex%3D%221%22%20parent%3D%223%22%3E%3CmxGeometry%20x%3D%2260%22%20y%3D%22600%22%20width%3D%22100%22%20height%3D%2260%22%20as%3D%22geometry%22%2F%3E%3C%2FmxCell%3E%3CmxCell%20id%3D%2213%22%20value%3D%22%E5%8F%91%E5%87%BA%E5%AF%B9%E8%B4%A6%E5%8D%95%22%20style%3D%22verticalLabelPosition%3Dbottom%3BverticalAlign%3Dtop%3Bhtml%3D1%3Bshape%3Dprocess%3BwhiteSpace%3Dwrap%3Brounded%3D1%3Bsize%3D0.14%3BarcSize%3D6%3Balign%3Dcenter%3BfontFamily%3D%E4%BB%BF%E5%AE%8B%3B%22%20vertex%3D%221%22%20parent%3D%223%22%3E%3CmxGeometry%20x%3D%2260%22%20y%3D%22720%22%20width%3D%22100%22%20height%3D%2260%22%20as%3D%22geometry%22%2F%3E%3C%2FmxCell%3E%3CmxCell%20id%3D%2214%22%20value%3D%22%E9%87%87%E8%B4%AD%E9%83%A8%22%20style%3D%22swimlane%3BstartSize%3D20%3Bhtml%3D1%3BfontFamily%3D%E4%BB%BF%E5%AE%8B%3BfillColor%3D%23dae8fc%3BstrokeColor%3D%236c8ebf%3B%22%20vertex%3D%221%22%20parent%3D%222%22%3E%3CmxGeometry%20x%3D%22240%22%20y%3D%2220%22%20width%3D%22240%22%20height%3D%22940%22%20as%3D%22geometry%22%2F%3E%3C%2FmxCell%3E%3CmxCell%20id%3D%2215%22%20value%3D%22%22%20style%3D%22edgeStyle%3Dnone%3Bhtml%3D1%3B%22%20edge%3D%221%22%20parent%3D%2214%22%20source%3D%2216%22%20target%3D%2217%22%3E%3CmxGeometry%20relative%3D%221%22%20as%3D%22geometry%22%2F%3E%3C%2FmxCell%3E%3CmxCell%20id%3D%2216%22%20value%3D%22%E7%BB%B4%E6%8A%A4%E4%BE%9B%E5%BA%94%E5%95%86%E6%B8%85%E5%8D%95%22%20style%3D%22verticalLabelPosition%3Dbottom%3BverticalAlign%3Dtop%3Bhtml%3D1%3Bshape%3Dprocess%3BwhiteSpace%3Dwrap%3Brounded%3D1%3Bsize%3D0.14%3BarcSize%3D6%3Balign%3Dcenter%3BfontFamily%3D%E4%BB%BF%E5%AE%8B%3BfillColor%3D%23dae8fc%3BstrokeColor%3D%236c8ebf%3B%22%20vertex%3D%221%22%20parent%3D%2214%22%3E%3CmxGeometry%20x%3D%2270%22%20y%3D%22140%22%20width%3D%22100%22%20height%3D%2260%22%20as%3D%22geometry%22%2F%3E%3C%2FmxCell%3E%3CmxCell%20id%3D%2217%22%20value%3D%22%E5%88%B6%E5%AE%9A%E9%87%87%E8%B4%AD%E8%AE%A1%E5%88%92%22%20style%3D%22verticalLabelPosition%3Dbottom%3BverticalAlign%3Dtop%3Bhtml%3D1%3Bshape%3Dprocess%3BwhiteSpace%3Dwrap%3Brounded%3D1%3Bsize%3D0.14%3BarcSize%3D6%3Balign%3Dcenter%3BfontFamily%3D%E4%BB%BF%E5%AE%8B%3BfillColor%3D%23dae8fc%3BstrokeColor%3D%236c8ebf%3B%22%20vertex%3D%221%22%20parent%3D%2214%22%3E%3CmxGeometry%20x%3D%2270%22%20y%3D%22250%22%20width%3D%22100%22%20height%3D%2260%22%20as%3D%22geometry%22%2F%3E%3C%2FmxCell%3E%3CmxCell%20id%3D%2218%22%20value%3D%22%E5%A1%AB%E5%86%99%E8%AE%A2%E8%B4%AD%E5%8D%95%22%20style%3D%22verticalLabelPosition%3Dbottom%3BverticalAlign%3Dtop%3Bhtml%3D1%3Bshape%3Dprocess%3BwhiteSpace%3Dwrap%3Brounded%3D1%3Bsize%3D0.14%3BarcSize%3D6%3Balign%3Dcenter%3BfontFamily%3D%E4%BB%BF%E5%AE%8B%3BfillColor%3D%23dae8fc%3BstrokeColor%3D%236c8ebf%3B%22%20vertex%3D%221%22%20parent%3D%2214%22%3E%3CmxGeometry%20x%3D%2270%22%20y%3D%22360%22%20width%3D%22100%22%20height%3D%2260%22%20as%3D%22geometry%22%2F%3E%3C%2FmxCell%3E%3CmxCell%20id%3D%2219%22%20value%3D%22%E4%BB%98%E6%AC%BE%E7%94%B3%E8%AF%B7%22%20style%3D%22verticalLabelPosition%3Dbottom%3BverticalAlign%3Dtop%3Bhtml%3D1%3Bshape%3Dprocess%3BwhiteSpace%3Dwrap%3Brounded%3D1%3Bsize%3D0.14%3BarcSize%3D6%3Balign%3Dcenter%3BfontFamily%3D%E4%BB%BF%E5%AE%8B%3BfillColor%3D%23dae8fc%3BstrokeColor%3D%236c8ebf%3B%22%20vertex%3D%221%22%20parent%3D%2214%22%3E%3CmxGeometry%20x%3D%2270%22%20y%3D%22480%22%20width%3D%22100%22%20height%3D%2260%22%20as%3D%22geometry%22%2F%3E%3C%2FmxCell%3E%3CmxCell%20id%3D%2220%22%20value%3D%22%E9%80%80%E8%B4%A7%22%20style%3D%22verticalLabelPosition%3Dbottom%3BverticalAlign%3Dtop%3Bhtml%3D1%3Bshape%3Dprocess%3BwhiteSpace%3Dwrap%3Brounded%3D1%3Bsize%3D0.14%3BarcSize%3D6%3Balign%3Dcenter%3BfontFamily%3D%E4%BB%BF%E5%AE%8B%3BfillColor%3D%23dae8fc%3BstrokeColor%3D%236c8ebf%3B%22%20vertex%3D%221%22%20parent%3D%2214%22%3E%3CmxGeometry%20x%3D%2270%22%20y%3D%22570%22%20width%3D%22100%22%20height%3D%2260%22%20as%3D%22geometry%22%2F%3E%3C%2FmxCell%3E%3CmxCell%20id%3D%2221%22%20value%3D%22%E7%94%9F%E4%BA%A7%E9%83%A8%E9%97%A8%22%20style%3D%22swimlane%3BstartSize%3D20%3Bhtml%3D1%3BfontFamily%3D%E4%BB%BF%E5%AE%8B%3BfillColor%3D%23dae8fc%3BstrokeColor%3D%236c8ebf%3B%22%20vertex%3D%221%22%20parent%3D%222%22%3E%3CmxGeometry%20x%3D%22480%22%20y%3D%2220%22%20width%3D%22240%22%20height%3D%22940%22%20as%3D%22geometry%22%2F%3E%3C%2FmxCell%3E%3CmxCell%20id%3D%2222%22%20value%3D%22%22%20style%3D%22edgeStyle%3Dnone%3Bhtml%3D1%3B%22%20edge%3D%221%22%20parent%3D%2221%22%20source%3D%2223%22%20target%3D%2224%22%3E%3CmxGeometry%20relative%3D%221%22%20as%3D%22geometry%22%2F%3E%3C%2FmxCell%3E%3CmxCell%20id%3D%2223%22%20value%3D%22%E7%A1%AE%E8%AE%A4%E9%87%87%E8%B4%AD%E8%AE%A1%E5%88%92%22%20style%3D%22verticalLabelPosition%3Dbottom%3BverticalAlign%3Dtop%3Bhtml%3D1%3Bshape%3Dprocess%3BwhiteSpace%3Dwrap%3Brounded%3D1%3Bsize%3D0.14%3BarcSize%3D6%3Balign%3Dcenter%3BfontFamily%3D%E4%BB%BF%E5%AE%8B%3BfillColor%3D%23dae8fc%3BstrokeColor%3D%236c8ebf%3B%22%20vertex%3D%221%22%20parent%3D%2221%22%3E%3CmxGeometry%20x%3D%2280%22%20y%3D%22250%22%20width%3D%22100%22%20height%3D%2260%22%20as%3D%22geometry%22%2F%3E%3C%2FmxCell%3E%3CmxCell%20id%3D%2224%22%20value%3D%22%E5%A1%AB%E5%86%99%E8%AF%B7%E8%B4%AD%E5%8D%95%22%20style%3D%22verticalLabelPosition%3Dbottom%3BverticalAlign%3Dtop%3Bhtml%3D1%3Bshape%3Dprocess%3BwhiteSpace%3Dwrap%3Brounded%3D1%3Bsize%3D0.14%3BarcSize%3D6%3Balign%3Dcenter%3BfontFamily%3D%E4%BB%BF%E5%AE%8B%3BfillColor%3D%23dae8fc%3BstrokeColor%3D%236c8ebf%3B%22%20vertex%3D%221%22%20parent%3D%2221%22%3E%3CmxGeometry%20x%3D%2280%22%20y%3D%22360%22%20width%3D%22100%22%20height%3D%2260%22%20as%3D%22geometry%22%2F%3E%3C%2FmxCell%3E%3CmxCell%20id%3D%2225%22%20value%3D%22%E4%BB%93%E5%BA%93%22%20style%3D%22swimlane%3BstartSize%3D20%3Bhtml%3D1%3BfontFamily%3D%E4%BB%BF%E5%AE%8B%3BfillColor%3D%23dae8fc%3BstrokeColor%3D%236c8ebf%3B%22%20vertex%3D%221%22%20parent%3D%222%22%3E%3CmxGeometry%20x%3D%22720%22%20y%3D%2220%22%20width%3D%22240%22%20height%3D%22940%22%20as%3D%22geometry%22%2F%3E%3C%2FmxCell%3E%3CmxCell%20id%3D%2226%22%20value%3D%22%E5%90%88%E6%A0%BC%E5%93%81%E5%85%A5%E5%BA%93%22%20style%3D%22verticalLabelPosition%3Dbottom%3BverticalAlign%3Dtop%3Bhtml%3D1%3Bshape%3Dprocess%3BwhiteSpace%3Dwrap%3Brounded%3D1%3Bsize%3D0.14%3BarcSize%3D6%3Balign%3Dcenter%3BfontFamily%3D%E4%BB%BF%E5%AE%8B%3BfillColor%3D%23dae8fc%3BstrokeColor%3D%236c8ebf%3B%22%20vertex%3D%221%22%20parent%3D%2225%22%3E%3CmxGeometry%20x%3D%2270%22%20y%3D%22360%22%20width%3D%22100%22%20height%3D%2260%22%20as%3D%22geometry%22%2F%3E%3C%2FmxCell%3E%3CmxCell%20id%3D%2227%22%20style%3D%22edgeStyle%3Dnone%3Bhtml%3D1%3BexitX%3D0.5%3BexitY%3D1%3BexitDx%3D0%3BexitDy%3D0%3BentryX%3D0.5%3BentryY%3D0%3BentryDx%3D0%3BentryDy%3D0%3B%22%20edge%3D%221%22%20parent%3D%2225%22%20source%3D%2228%22%20target%3D%2226%22%3E%3CmxGeometry%20relative%3D%221%22%20as%3D%22geometry%22%2F%3E%3C%2FmxCell%3E%3CmxCell%20id%3D%2228%22%20value%3D%22%E9%AA%8C%E6%94%B6%22%20style%3D%22verticalLabelPosition%3Dbottom%3BverticalAlign%3Dtop%3Bhtml%3D1%3Bshape%3Dprocess%3BwhiteSpace%3Dwrap%3Brounded%3D1%3Bsize%3D0.14%3BarcSize%3D6%3Balign%3Dcenter%3BfontFamily%3D%E4%BB%BF%E5%AE%8B%3BfillColor%3D%23dae8fc%3BstrokeColor%3D%236c8ebf%3B%22%20vertex%3D%221%22%20parent%3D%2225%22%3E%3CmxGeometry%20x%3D%2270%22%20y%3D%22250%22%20width%3D%22100%22%20height%3D%2260%22%20as%3D%22geometry%22%2F%3E%3C%2FmxCell%3E%3CmxCell%20id%3D%2229%22%20value%3D%22%E8%B4%A2%E5%8A%A1%22%20style%3D%22swimlane%3BstartSize%3D20%3Bhtml%3D1%3BfontFamily%3D%E4%BB%BF%E5%AE%8B%3BfillColor%3D%23dae8fc%3BstrokeColor%3D%236c8ebf%3B%22%20vertex%3D%221%22%20parent%3D%222%22%3E%3CmxGeometry%20x%3D%22960%22%20y%3D%2220%22%20width%3D%22240%22%20height%3D%22940%22%20as%3D%22geometry%22%2F%3E%3C%2FmxCell%3E%3CmxCell%20id%3D%2230%22%20style%3D%22edgeStyle%3Dnone%3Bhtml%3D1%3BentryX%3D0.5%3BentryY%3D0%3BentryDx%3D0%3BentryDy%3D0%3B%22%20edge%3D%221%22%20parent%3D%2229%22%20source%3D%2231%22%20target%3D%2233%22%3E%3CmxGeometry%20relative%3D%221%22%20as%3D%22geometry%22%2F%3E%3C%2FmxCell%3E%3CmxCell%20id%3D%2231%22%20value%3D%22%E7%A1%AE%E8%AE%A4%E5%BA%94%E4%BB%98%22%20style%3D%22verticalLabelPosition%3Dbottom%3BverticalAlign%3Dtop%3Bhtml%3D1%3Bshape%3Dprocess%3BwhiteSpace%3Dwrap%3Brounded%3D1%3Bsize%3D0.14%3BarcSize%3D6%3Balign%3Dcenter%3BfontFamily%3D%E4%BB%BF%E5%AE%8B%3BfillColor%3D%23dae8fc%3BstrokeColor%3D%236c8ebf%3B%22%20vertex%3D%221%22%20parent%3D%2229%22%3E%3CmxGeometry%20x%3D%2280%22%20y%3D%22485%22%20width%3D%22100%22%20height%3D%2260%22%20as%3D%22geometry%22%2F%3E%3C%2FmxCell%3E%3CmxCell%20id%3D%2232%22%20style%3D%22edgeStyle%3Dnone%3Bhtml%3D1%3BentryX%3D0.5%3BentryY%3D0%3BentryDx%3D0%3BentryDy%3D0%3B%22%20edge%3D%221%22%20parent%3D%2229%22%20source%3D%2233%22%20target%3D%2235%22%3E%3CmxGeometry%20relative%3D%221%22%20as%3D%22geometry%22%2F%3E%3C%2FmxCell%3E%3CmxCell%20id%3D%2233%22%20value%3D%22%E7%A1%AE%E8%AE%A4%E6%89%93%E6%AC%BE%22%20style%3D%22verticalLabelPosition%3Dbottom%3BverticalAlign%3Dtop%3Bhtml%3D1%3Bshape%3Dprocess%3BwhiteSpace%3Dwrap%3Brounded%3D1%3Bsize%3D0.14%3BarcSize%3D6%3Balign%3Dcenter%3BfontFamily%3D%E4%BB%BF%E5%AE%8B%3BfillColor%3D%23dae8fc%3BstrokeColor%3D%236c8ebf%3B%22%20vertex%3D%221%22%20parent%3D%2229%22%3E%3CmxGeometry%20x%3D%2280%22%20y%3D%22600%22%20width%3D%22100%22%20height%3D%2260%22%20as%3D%22geometry%22%2F%3E%3C%2FmxCell%3E%3CmxCell%20id%3D%2234%22%20style%3D%22edgeStyle%3Dnone%3Bhtml%3D1%3BentryX%3D0.5%3BentryY%3D0%3BentryDx%3D0%3BentryDy%3D0%3BentryPerimeter%3D0%3B%22%20edge%3D%221%22%20parent%3D%2229%22%20source%3D%2235%22%20target%3D%2236%22%3E%3CmxGeometry%20relative%3D%221%22%20as%3D%22geometry%22%2F%3E%3C%2FmxCell%3E%3CmxCell%20id%3D%2235%22%20value%3D%22%E6%94%B6%E5%88%B0%E5%8F%91%E7%A5%A8%E3%80%81%E5%AF%B9%E8%B4%A6%E5%8D%95%22%20style%3D%22verticalLabelPosition%3Dbottom%3BverticalAlign%3Dtop%3Bhtml%3D1%3Bshape%3Dprocess%3BwhiteSpace%3Dwrap%3Brounded%3D1%3Bsize%3D0.14%3BarcSize%3D6%3Balign%3Dcenter%3BfontFamily%3D%E4%BB%BF%E5%AE%8B%3BfillColor%3D%23dae8fc%3BstrokeColor%3D%236c8ebf%3B%22%20vertex%3D%221%22%20parent%3D%2229%22%3E%3CmxGeometry%20x%3D%2280%22%20y%3D%22720%22%20width%3D%22100%22%20height%3D%2260%22%20as%3D%22geometry%22%2F%3E%3C%2FmxCell%3E%3CmxCell%20id%3D%2236%22%20value%3D%22%E7%BB%93%E6%9D%9F%22%20style%3D%22strokeWidth%3D2%3Bhtml%3D1%3Bshape%3Dmxgraph.flowchart.start_1%3BwhiteSpace%3Dwrap%3BfontFamily%3D%E4%BB%BF%E5%AE%8B%3B%22%20vertex%3D%221%22%20parent%3D%2229%22%3E%3CmxGeometry%20x%3D%2280%22%20y%3D%22850%22%20width%3D%22100%22%20height%3D%2260%22%20as%3D%22geometry%22%2F%3E%3C%2FmxCell%3E%3CmxCell%20id%3D%2237%22%20value%3D%22%E9%87%87%E8%B4%AD%E4%BB%B7%E6%A0%BC%E5%AE%A1%E6%89%B9%22%20style%3D%22verticalLabelPosition%3Dbottom%3BverticalAlign%3Dtop%3Bhtml%3D1%3Bshape%3Dprocess%3BwhiteSpace%3Dwrap%3Brounded%3D1%3Bsize%3D0.14%3BarcSize%3D6%3Balign%3Dcenter%3BfontFamily%3D%E4%BB%BF%E5%AE%8B%3BfillColor%3D%23dae8fc%3BstrokeColor%3D%236c8ebf%3B%22%20vertex%3D%221%22%20parent%3D%2229%22%3E%3CmxGeometry%20x%3D%2270%22%20y%3D%22130%22%20width%3D%22100%22%20height%3D%2260%22%20as%3D%22geometry%22%2F%3E%3C%2FmxCell%3E%3CmxCell%20id%3D%2238%22%20style%3D%22edgeStyle%3Dnone%3Bhtml%3D1%3BentryX%3D0%3BentryY%3D0.5%3BentryDx%3D0%3BentryDy%3D0%3B%22%20edge%3D%221%22%20parent%3D%222%22%20source%3D%2217%22%20target%3D%2223%22%3E%3CmxGeometry%20relative%3D%221%22%20as%3D%22geometry%22%2F%3E%3C%2FmxCell%3E%3CmxCell%20id%3D%2239%22%20style%3D%22edgeStyle%3Dnone%3Bhtml%3D1%3BentryX%3D0%3BentryY%3D0.5%3BentryDx%3D0%3BentryDy%3D0%3B%22%20edge%3D%221%22%20parent%3D%222%22%20source%3D%224%22%20target%3D%2216%22%3E%3CmxGeometry%20relative%3D%221%22%20as%3D%22geometry%22%2F%3E%3C%2FmxCell%3E%3CmxCell%20id%3D%2240%22%20value%3D%22%22%20style%3D%22edgeStyle%3Dnone%3Bhtml%3D1%3B%22%20edge%3D%221%22%20parent%3D%222%22%20source%3D%2224%22%20target%3D%2218%22%3E%3CmxGeometry%20relative%3D%221%22%20as%3D%22geometry%22%2F%3E%3C%2FmxCell%3E%3CmxCell%20id%3D%2241%22%20style%3D%22edgeStyle%3Dnone%3Bhtml%3D1%3B%22%20edge%3D%221%22%20parent%3D%222%22%20source%3D%2218%22%20target%3D%228%22%3E%3CmxGeometry%20relative%3D%221%22%20as%3D%22geometry%22%2F%3E%3C%2FmxCell%3E%3CmxCell%20id%3D%2242%22%20style%3D%22edgeStyle%3Dnone%3Bhtml%3D1%3BentryX%3D0%3BentryY%3D0.5%3BentryDx%3D0%3BentryDy%3D0%3B%22%20edge%3D%221%22%20parent%3D%222%22%20source%3D%2210%22%20target%3D%2228%22%3E%3CmxGeometry%20relative%3D%221%22%20as%3D%22geometry%22%3E%3CArray%20as%3D%22points%22%3E%3CmxPoint%20x%3D%22220%22%20y%3D%22535%22%2F%3E%3CmxPoint%20x%3D%22220%22%20y%3D%22480%22%2F%3E%3CmxPoint%20x%3D%22530%22%20y%3D%22480%22%2F%3E%3CmxPoint%20x%3D%22740%22%20y%3D%22480%22%2F%3E%3CmxPoint%20x%3D%22740%22%20y%3D%22410%22%2F%3E%3CmxPoint%20x%3D%22740%22%20y%3D%22300%22%2F%3E%3C%2FArray%3E%3C%2FmxGeometry%3E%3C%2FmxCell%3E%3CmxCell%20id%3D%2243%22%20style%3D%22edgeStyle%3Dnone%3Bhtml%3D1%3B%22%20edge%3D%221%22%20parent%3D%222%22%20source%3D%2226%22%3E%3CmxGeometry%20relative%3D%221%22%20as%3D%22geometry%22%3E%3CmxPoint%20x%3D%221090%22%20y%3D%22500%22%20as%3D%22targetPoint%22%2F%3E%3CArray%20as%3D%22points%22%3E%3CmxPoint%20x%3D%221090%22%20y%3D%22410%22%2F%3E%3C%2FArray%3E%3C%2FmxGeometry%3E%3C%2FmxCell%3E%3CmxCell%20id%3D%2244%22%20style%3D%22edgeStyle%3Dnone%3Bhtml%3D1%3BexitX%3D0.5%3BexitY%3D1%3BexitDx%3D0%3BexitDy%3D0%3BentryX%3D1%3BentryY%3D0.5%3BentryDx%3D0%3BentryDy%3D0%3B%22%20edge%3D%221%22%20parent%3D%222%22%20source%3D%2226%22%20target%3D%2219%22%3E%3CmxGeometry%20relative%3D%221%22%20as%3D%22geometry%22%3E%3CArray%20as%3D%22points%22%3E%3CmxPoint%20x%3D%22840%22%20y%3D%22530%22%2F%3E%3C%2FArray%3E%3C%2FmxGeometry%3E%3C%2FmxCell%3E%3CmxCell%20id%3D%2245%22%20style%3D%22edgeStyle%3Dnone%3Bhtml%3D1%3BentryX%3D0%3BentryY%3D0.75%3BentryDx%3D0%3BentryDy%3D0%3B%22%20edge%3D%221%22%20parent%3D%222%22%20target%3D%2231%22%3E%3CmxGeometry%20relative%3D%221%22%20as%3D%22geometry%22%3E%3CmxPoint%20x%3D%22410%22%20y%3D%22550%22%20as%3D%22sourcePoint%22%2F%3E%3CmxPoint%20x%3D%221030%22%20y%3D%22545%22%20as%3D%22targetPoint%22%2F%3E%3C%2FmxGeometry%3E%3C%2FmxCell%3E%3CmxCell%20id%3D%2246%22%20style%3D%22edgeStyle%3Dnone%3Bhtml%3D1%3BexitX%3D0%3BexitY%3D1%3BexitDx%3D0%3BexitDy%3D0%3BentryX%3D1%3BentryY%3D1%3BentryDx%3D0%3BentryDy%3D0%3B%22%20edge%3D%221%22%20parent%3D%222%22%20source%3D%2233%22%20target%3D%2212%22%3E%3CmxGeometry%20relative%3D%221%22%20as%3D%22geometry%22%3E%3CArray%20as%3D%22points%22%2F%3E%3C%2FmxGeometry%3E%3C%2FmxCell%3E%3CmxCell%20id%3D%2247%22%20style%3D%22edgeStyle%3Dnone%3Bhtml%3D1%3BentryX%3D0%3BentryY%3D0.5%3BentryDx%3D0%3BentryDy%3D0%3B%22%20edge%3D%221%22%20parent%3D%222%22%20source%3D%2213%22%20target%3D%2235%22%3E%3CmxGeometry%20relative%3D%221%22%20as%3D%22geometry%22%2F%3E%3C%2FmxCell%3E%3CmxCell%20id%3D%2248%22%20style%3D%22edgeStyle%3Dnone%3Bhtml%3D1%3BentryX%3D1%3BentryY%3D0.25%3BentryDx%3D0%3BentryDy%3D0%3B%22%20edge%3D%221%22%20parent%3D%222%22%20target%3D%2212%22%3E%3CmxGeometry%20relative%3D%221%22%20as%3D%22geometry%22%3E%3CmxPoint%20x%3D%22140%22%20y%3D%22599.7142857142858%22%20as%3D%22targetPoint%22%2F%3E%3CmxPoint%20x%3D%22310%22%20y%3D%22635%22%20as%3D%22sourcePoint%22%2F%3E%3CArray%20as%3D%22points%22%2F%3E%3C%2FmxGeometry%3E%3C%2FmxCell%3E%3CmxCell%20id%3D%2249%22%20style%3D%22edgeStyle%3Dnone%3Bhtml%3D1%3BexitX%3D1%3BexitY%3D0.5%3BexitDx%3D0%3BexitDy%3D0%3B%22%20edge%3D%221%22%20parent%3D%222%22%20source%3D%2228%22%3E%3CmxGeometry%20relative%3D%221%22%20as%3D%22geometry%22%3E%3CmxPoint%20x%3D%22410%22%20y%3D%22640%22%20as%3D%22targetPoint%22%2F%3E%3CArray%20as%3D%22points%22%3E%3CmxPoint%20x%3D%22920%22%20y%3D%22300%22%2F%3E%3CmxPoint%20x%3D%22920%22%20y%3D%22390%22%2F%3E%3CmxPoint%20x%3D%22920%22%20y%3D%22640%22%2F%3E%3C%2FArray%3E%3C%2FmxGeometry%3E%3C%2FmxCell%3E%3CmxCell%20id%3D%2250%22%20style%3D%22edgeStyle%3Dnone%3Bhtml%3D1%3BexitX%3D0.5%3BexitY%3D0%3BexitDx%3D0%3BexitDy%3D0%3BentryX%3D0%3BentryY%3D0.5%3BentryDx%3D0%3BentryDy%3D0%3B%22%20edge%3D%221%22%20parent%3D%222%22%20source%3D%2223%22%20target%3D%2237%22%3E%3CmxGeometry%20relative%3D%221%22%20as%3D%22geometry%22%3E%3CArray%20as%3D%22points%22%3E%3CmxPoint%20x%3D%22610%22%20y%3D%22180%22%2F%3E%3C%2FArray%3E%3C%2FmxGeometry%3E%3C%2FmxCell%3E%3CmxCell%20id%3D%2251%22%20style%3D%22edgeStyle%3Dnone%3Bhtml%3D1%3BentryX%3D0.75%3BentryY%3D0%3BentryDx%3D0%3BentryDy%3D0%3B%22%20edge%3D%221%22%20parent%3D%222%22%20target%3D%2223%22%3E%3CmxGeometry%20relative%3D%221%22%20as%3D%22geometry%22%3E%3CmxPoint%20x%3D%221030%22%20y%3D%22200%22%20as%3D%22sourcePoint%22%2F%3E%3CmxPoint%20x%3D%22640%22%20y%3D%22260%22%20as%3D%22targetPoint%22%2F%3E%3CArray%20as%3D%22points%22%3E%3CmxPoint%20x%3D%22860%22%20y%3D%22200%22%2F%3E%3CmxPoint%20x%3D%22635%22%20y%3D%22200%22%2F%3E%3C%2FArray%3E%3C%2FmxGeometry%3E%3C%2FmxCell%3E%3C%2Froot%3E%3C%2FmxGraphModel%3E&lt;/span&gt;" style="verticalLabelPosition=bottom;verticalAlign=top;html=1;shape=process;whiteSpace=wrap;rounded=1;size=0.14;arcSize=6;align=center;fontFamily=仿宋;" parent="s8eY3lmBnVh6mnitSegQ-2" vertex="1">
                    <mxGeometry x="60" y="140" width="100" height="60" as="geometry"/>
                </mxCell>
                <mxCell id="s8eY3lmBnVh6mnitSegQ-4" value="" style="edgeStyle=none;html=1;" parent="s8eY3lmBnVh6mnitSegQ-2" source="s8eY3lmBnVh6mnitSegQ-5" target="s8eY3lmBnVh6mnitSegQ-3" edge="1">
                    <mxGeometry relative="1" as="geometry"/>
                </mxCell>
                <mxCell id="s8eY3lmBnVh6mnitSegQ-5" value="开始" style="strokeWidth=2;html=1;shape=mxgraph.flowchart.start_1;whiteSpace=wrap;fontFamily=仿宋;" parent="s8eY3lmBnVh6mnitSegQ-2" vertex="1">
                    <mxGeometry x="60" y="50" width="100" height="60" as="geometry"/>
                </mxCell>
                <mxCell id="s8eY3lmBnVh6mnitSegQ-24" value="生产管理部" style="swimlane;startSize=20;html=1;fontFamily=仿宋;fillColor=#dae8fc;strokeColor=#6c8ebf;" parent="s8eY3lmBnVh6mnitSegQ-1" vertex="1">
                    <mxGeometry x="240" y="20" width="240" height="1480" as="geometry"/>
                </mxCell>
                <mxCell id="mSaDTx5yq42Bu9yDP1Ox-4" style="edgeStyle=none;html=1;" parent="s8eY3lmBnVh6mnitSegQ-24" source="njRrt-n6p6UCuZJra7xg-10" target="mSaDTx5yq42Bu9yDP1Ox-3" edge="1">
                    <mxGeometry relative="1" as="geometry"/>
                </mxCell>
                <mxCell id="njRrt-n6p6UCuZJra7xg-10" value="制定生产计划（生产指令、生产排期）" style="verticalLabelPosition=bottom;verticalAlign=top;html=1;shape=process;whiteSpace=wrap;rounded=1;size=0.14;arcSize=6;align=center;fontFamily=仿宋;" parent="s8eY3lmBnVh6mnitSegQ-24" vertex="1">
                    <mxGeometry x="70" y="140" width="100" height="60" as="geometry"/>
                </mxCell>
                <mxCell id="mSaDTx5yq42Bu9yDP1Ox-12" value="N" style="edgeStyle=none;html=1;entryX=0.5;entryY=0;entryDx=0;entryDy=0;exitX=0.5;exitY=1;exitDx=0;exitDy=0;exitPerimeter=0;" parent="s8eY3lmBnVh6mnitSegQ-24" source="mSaDTx5yq42Bu9yDP1Ox-13" target="mSaDTx5yq42Bu9yDP1Ox-11" edge="1">
                    <mxGeometry relative="1" as="geometry">
                        <mxPoint x="120" y="510" as="sourcePoint"/>
                    </mxGeometry>
                </mxCell>
                <mxCell id="mSaDTx5yq42Bu9yDP1Ox-3" value="维护物料信息" style="verticalLabelPosition=bottom;verticalAlign=top;html=1;shape=process;whiteSpace=wrap;rounded=1;size=0.14;arcSize=6;align=center;fontFamily=仿宋;" parent="s8eY3lmBnVh6mnitSegQ-24" vertex="1">
                    <mxGeometry x="70" y="290" width="100" height="60" as="geometry"/>
                </mxCell>
                <mxCell id="mSaDTx5yq42Bu9yDP1Ox-11" value="报废流程" style="verticalLabelPosition=bottom;verticalAlign=top;html=1;shape=process;whiteSpace=wrap;rounded=1;size=0.14;arcSize=6;align=center;fontFamily=仿宋;" parent="s8eY3lmBnVh6mnitSegQ-24" vertex="1">
                    <mxGeometry x="70" y="530" width="100" height="60" as="geometry"/>
                </mxCell>
                <mxCell id="mSaDTx5yq42Bu9yDP1Ox-13" value="质检合格" style="strokeWidth=2;html=1;shape=mxgraph.flowchart.decision;whiteSpace=wrap;" parent="s8eY3lmBnVh6mnitSegQ-24" vertex="1">
                    <mxGeometry x="70" y="430" width="100" height="60" as="geometry"/>
                </mxCell>
                <mxCell id="yEsjIJw-PcLt3pC7XF7p-6" value="制定盘点计划" style="verticalLabelPosition=bottom;verticalAlign=top;html=1;shape=process;whiteSpace=wrap;rounded=1;size=0.14;arcSize=6;align=center;fontFamily=仿宋;" parent="s8eY3lmBnVh6mnitSegQ-24" vertex="1">
                    <mxGeometry x="80" y="880" width="100" height="60" as="geometry"/>
                </mxCell>
                <mxCell id="yEsjIJw-PcLt3pC7XF7p-8" style="edgeStyle=none;html=1;exitX=1;exitY=0.5;exitDx=0;exitDy=0;" parent="s8eY3lmBnVh6mnitSegQ-1" source="yEsjIJw-PcLt3pC7XF7p-6" target="yEsjIJw-PcLt3pC7XF7p-7" edge="1">
                    <mxGeometry relative="1" as="geometry"/>
                </mxCell>
                <mxCell id="s8eY3lmBnVh6mnitSegQ-28" value="车间" style="swimlane;startSize=20;html=1;fontFamily=仿宋;fillColor=#dae8fc;strokeColor=#6c8ebf;" parent="s8eY3lmBnVh6mnitSegQ-1" vertex="1">
                    <mxGeometry x="480" y="20" width="240" height="1480" as="geometry"/>
                </mxCell>
                <mxCell id="s8eY3lmBnVh6mnitSegQ-36" value="领料" style="verticalLabelPosition=bottom;verticalAlign=top;html=1;shape=process;whiteSpace=wrap;rounded=1;size=0.14;arcSize=6;align=center;fontFamily=仿宋;" parent="s8eY3lmBnVh6mnitSegQ-28" vertex="1">
                    <mxGeometry x="70" y="140" width="100" height="60" as="geometry"/>
                </mxCell>
                <mxCell id="njRrt-n6p6UCuZJra7xg-29" style="edgeStyle=none;html=1;entryX=0.5;entryY=0;entryDx=0;entryDy=0;" parent="s8eY3lmBnVh6mnitSegQ-28" source="njRrt-n6p6UCuZJra7xg-25" target="njRrt-n6p6UCuZJra7xg-27" edge="1">
                    <mxGeometry relative="1" as="geometry"/>
                </mxCell>
                <mxCell id="njRrt-n6p6UCuZJra7xg-25" value="生产投料" style="verticalLabelPosition=bottom;verticalAlign=top;html=1;shape=process;whiteSpace=wrap;rounded=1;size=0.14;arcSize=6;align=center;fontFamily=仿宋;" parent="s8eY3lmBnVh6mnitSegQ-28" vertex="1">
                    <mxGeometry x="70" y="240" width="100" height="60" as="geometry"/>
                </mxCell>
                <mxCell id="yEsjIJw-PcLt3pC7XF7p-3" style="edgeStyle=none;html=1;entryX=0;entryY=0.5;entryDx=0;entryDy=0;exitX=0;exitY=0.75;exitDx=0;exitDy=0;" parent="s8eY3lmBnVh6mnitSegQ-28" source="njRrt-n6p6UCuZJra7xg-27" target="njRrt-n6p6UCuZJra7xg-31" edge="1">
                    <mxGeometry relative="1" as="geometry">
                        <Array as="points">
                            <mxPoint x="30" y="395"/>
                            <mxPoint x="30" y="780"/>
                        </Array>
                    </mxGeometry>
                </mxCell>
                <mxCell id="njRrt-n6p6UCuZJra7xg-27" value="工单完工" style="verticalLabelPosition=bottom;verticalAlign=top;html=1;shape=process;whiteSpace=wrap;rounded=1;size=0.14;arcSize=6;align=center;fontFamily=仿宋;" parent="s8eY3lmBnVh6mnitSegQ-28" vertex="1">
                    <mxGeometry x="70" y="350" width="100" height="60" as="geometry"/>
                </mxCell>
                <mxCell id="3LACC5GUQdv1p67W-fW--7" style="edgeStyle=none;html=1;entryX=0.5;entryY=0;entryDx=0;entryDy=0;" parent="s8eY3lmBnVh6mnitSegQ-28" source="mSaDTx5yq42Bu9yDP1Ox-17" target="3LACC5GUQdv1p67W-fW--3" edge="1">
                    <mxGeometry relative="1" as="geometry"/>
                </mxCell>
                <mxCell id="mSaDTx5yq42Bu9yDP1Ox-17" value="产品拆件" style="verticalLabelPosition=bottom;verticalAlign=top;html=1;shape=process;whiteSpace=wrap;rounded=1;size=0.14;arcSize=6;align=center;fontFamily=仿宋;" parent="s8eY3lmBnVh6mnitSegQ-28" vertex="1">
                    <mxGeometry x="70" y="530" width="100" height="60" as="geometry"/>
                </mxCell>
                <mxCell id="3LACC5GUQdv1p67W-fW--3" value="确认报废部分" style="verticalLabelPosition=bottom;verticalAlign=top;html=1;shape=process;whiteSpace=wrap;rounded=1;size=0.14;arcSize=6;align=center;fontFamily=仿宋;" parent="s8eY3lmBnVh6mnitSegQ-28" vertex="1">
                    <mxGeometry x="70" y="630" width="100" height="60" as="geometry"/>
                </mxCell>
                <mxCell id="njRrt-n6p6UCuZJra7xg-31" value="月末上报工时工资信息" style="verticalLabelPosition=bottom;verticalAlign=top;html=1;shape=process;whiteSpace=wrap;rounded=1;size=0.14;arcSize=6;align=center;fontFamily=仿宋;" parent="s8eY3lmBnVh6mnitSegQ-28" vertex="1">
                    <mxGeometry x="70" y="750" width="100" height="60" as="geometry"/>
                </mxCell>
                <mxCell id="njRrt-n6p6UCuZJra7xg-1" value="仓库" style="swimlane;startSize=20;html=1;fontFamily=仿宋;fillColor=#dae8fc;strokeColor=#6c8ebf;" parent="s8eY3lmBnVh6mnitSegQ-1" vertex="1">
                    <mxGeometry x="720" y="20" width="240" height="1480" as="geometry"/>
                </mxCell>
                <mxCell id="njRrt-n6p6UCuZJra7xg-24" style="edgeStyle=none;html=1;entryX=0.5;entryY=0;entryDx=0;entryDy=0;" parent="njRrt-n6p6UCuZJra7xg-1" source="njRrt-n6p6UCuZJra7xg-9" target="njRrt-n6p6UCuZJra7xg-23" edge="1">
                    <mxGeometry relative="1" as="geometry"/>
                </mxCell>
                <mxCell id="njRrt-n6p6UCuZJra7xg-9" value="确认领料需求" style="verticalLabelPosition=bottom;verticalAlign=top;html=1;shape=process;whiteSpace=wrap;rounded=1;size=0.14;arcSize=6;align=center;fontFamily=仿宋;" parent="njRrt-n6p6UCuZJra7xg-1" vertex="1">
                    <mxGeometry x="70" y="140" width="100" height="60" as="geometry"/>
                </mxCell>
                <mxCell id="njRrt-n6p6UCuZJra7xg-23" value="发料" style="verticalLabelPosition=bottom;verticalAlign=top;html=1;shape=process;whiteSpace=wrap;rounded=1;size=0.14;arcSize=6;align=center;fontFamily=仿宋;" parent="njRrt-n6p6UCuZJra7xg-1" vertex="1">
                    <mxGeometry x="70" y="240" width="100" height="60" as="geometry"/>
                </mxCell>
                <mxCell id="jSb2tbMWPS0M8ItGvkOL-2" value="入库验收" style="verticalLabelPosition=bottom;verticalAlign=top;html=1;shape=process;whiteSpace=wrap;rounded=1;size=0.14;arcSize=6;align=center;fontFamily=仿宋;" parent="njRrt-n6p6UCuZJra7xg-1" vertex="1">
                    <mxGeometry x="70" y="390" width="100" height="60" as="geometry"/>
                </mxCell>
                <mxCell id="3LACC5GUQdv1p67W-fW--11" style="edgeStyle=none;html=1;entryX=0.5;entryY=1;entryDx=0;entryDy=0;" parent="njRrt-n6p6UCuZJra7xg-1" source="3LACC5GUQdv1p67W-fW--5" target="jSb2tbMWPS0M8ItGvkOL-2" edge="1">
                    <mxGeometry relative="1" as="geometry"/>
                </mxCell>
                <mxCell id="3LACC5GUQdv1p67W-fW--5" value="可用产品入库" style="verticalLabelPosition=bottom;verticalAlign=top;html=1;shape=process;whiteSpace=wrap;rounded=1;size=0.14;arcSize=6;align=center;fontFamily=仿宋;" parent="njRrt-n6p6UCuZJra7xg-1" vertex="1">
                    <mxGeometry x="70" y="530" width="100" height="60" as="geometry"/>
                </mxCell>
                <mxCell id="yEsjIJw-PcLt3pC7XF7p-7" value="盘点" style="verticalLabelPosition=bottom;verticalAlign=top;html=1;shape=process;whiteSpace=wrap;rounded=1;size=0.14;arcSize=6;align=center;fontFamily=仿宋;" parent="njRrt-n6p6UCuZJra7xg-1" vertex="1">
                    <mxGeometry x="70" y="880" width="100" height="60" as="geometry"/>
                </mxCell>
                <mxCell id="njRrt-n6p6UCuZJra7xg-12" value="财务" style="swimlane;startSize=20;html=1;fontFamily=仿宋;fillColor=#dae8fc;strokeColor=#6c8ebf;" parent="s8eY3lmBnVh6mnitSegQ-1" vertex="1">
                    <mxGeometry x="960" y="20" width="240" height="1480" as="geometry"/>
                </mxCell>
                <mxCell id="njRrt-n6p6UCuZJra7xg-20" value="确认成本费用" style="verticalLabelPosition=bottom;verticalAlign=top;html=1;shape=process;whiteSpace=wrap;rounded=1;size=0.14;arcSize=6;align=center;fontFamily=仿宋;" parent="njRrt-n6p6UCuZJra7xg-12" vertex="1">
                    <mxGeometry x="70" y="240" width="100" height="60" as="geometry"/>
                </mxCell>
                <mxCell id="mSaDTx5yq42Bu9yDP1Ox-14" value="确认存货" style="verticalLabelPosition=bottom;verticalAlign=top;html=1;shape=process;whiteSpace=wrap;rounded=1;size=0.14;arcSize=6;align=center;fontFamily=仿宋;" parent="njRrt-n6p6UCuZJra7xg-12" vertex="1">
                    <mxGeometry x="70" y="390" width="100" height="60" as="geometry"/>
                </mxCell>
                <mxCell id="3LACC5GUQdv1p67W-fW--9" value="确认损益" style="verticalLabelPosition=bottom;verticalAlign=top;html=1;shape=process;whiteSpace=wrap;rounded=1;size=0.14;arcSize=6;align=center;fontFamily=仿宋;" parent="njRrt-n6p6UCuZJra7xg-12" vertex="1">
                    <mxGeometry x="70" y="630" width="100" height="60" as="geometry"/>
                </mxCell>
                <mxCell id="yEsjIJw-PcLt3pC7XF7p-4" value="计算实际成本的分摊率、更新核算数据" style="verticalLabelPosition=bottom;verticalAlign=top;html=1;shape=process;whiteSpace=wrap;rounded=1;size=0.14;arcSize=6;align=center;fontFamily=仿宋;" parent="njRrt-n6p6UCuZJra7xg-12" vertex="1">
                    <mxGeometry x="70" y="750" width="100" height="60" as="geometry"/>
                </mxCell>
                <mxCell id="yEsjIJw-PcLt3pC7XF7p-12" style="edgeStyle=none;html=1;entryX=0.5;entryY=0;entryDx=0;entryDy=0;" parent="njRrt-n6p6UCuZJra7xg-12" source="yEsjIJw-PcLt3pC7XF7p-9" target="yEsjIJw-PcLt3pC7XF7p-11" edge="1">
                    <mxGeometry relative="1" as="geometry"/>
                </mxCell>
                <mxCell id="yEsjIJw-PcLt3pC7XF7p-9" value="库龄分析" style="verticalLabelPosition=bottom;verticalAlign=top;html=1;shape=process;whiteSpace=wrap;rounded=1;size=0.14;arcSize=6;align=center;fontFamily=仿宋;" parent="njRrt-n6p6UCuZJra7xg-12" vertex="1">
                    <mxGeometry x="70" y="880" width="100" height="60" as="geometry"/>
                </mxCell>
                <mxCell id="yEsjIJw-PcLt3pC7XF7p-11" value="计提存货跌价准备" style="verticalLabelPosition=bottom;verticalAlign=top;html=1;shape=process;whiteSpace=wrap;rounded=1;size=0.14;arcSize=6;align=center;fontFamily=仿宋;" parent="njRrt-n6p6UCuZJra7xg-12" vertex="1">
                    <mxGeometry x="70" y="990" width="100" height="60" as="geometry"/>
                </mxCell>
                <mxCell id="s8eY3lmBnVh6mnitSegQ-38" style="edgeStyle=none;html=1;entryX=0;entryY=0.5;entryDx=0;entryDy=0;" parent="s8eY3lmBnVh6mnitSegQ-1" source="s8eY3lmBnVh6mnitSegQ-3" edge="1">
                    <mxGeometry relative="1" as="geometry">
                        <mxPoint x="310" y="190" as="targetPoint"/>
                    </mxGeometry>
                </mxCell>
                <mxCell id="njRrt-n6p6UCuZJra7xg-11" style="edgeStyle=none;html=1;entryX=0;entryY=0.5;entryDx=0;entryDy=0;" parent="s8eY3lmBnVh6mnitSegQ-1" source="njRrt-n6p6UCuZJra7xg-10" target="s8eY3lmBnVh6mnitSegQ-36" edge="1">
                    <mxGeometry relative="1" as="geometry"/>
                </mxCell>
                <mxCell id="njRrt-n6p6UCuZJra7xg-21" style="edgeStyle=none;html=1;entryX=0;entryY=0.5;entryDx=0;entryDy=0;" parent="s8eY3lmBnVh6mnitSegQ-1" source="s8eY3lmBnVh6mnitSegQ-36" target="njRrt-n6p6UCuZJra7xg-9" edge="1">
                    <mxGeometry relative="1" as="geometry"/>
                </mxCell>
                <mxCell id="njRrt-n6p6UCuZJra7xg-26" style="edgeStyle=none;html=1;exitX=0;exitY=0.5;exitDx=0;exitDy=0;entryX=1;entryY=0.5;entryDx=0;entryDy=0;" parent="s8eY3lmBnVh6mnitSegQ-1" source="njRrt-n6p6UCuZJra7xg-23" target="njRrt-n6p6UCuZJra7xg-25" edge="1">
                    <mxGeometry relative="1" as="geometry"/>
                </mxCell>
                <mxCell id="jSb2tbMWPS0M8ItGvkOL-3" value="Y" style="edgeStyle=none;html=1;exitX=1;exitY=0.5;exitDx=0;exitDy=0;exitPerimeter=0;" parent="s8eY3lmBnVh6mnitSegQ-1" source="mSaDTx5yq42Bu9yDP1Ox-13" target="jSb2tbMWPS0M8ItGvkOL-2" edge="1">
                    <mxGeometry relative="1" as="geometry">
                        <mxPoint x="410" y="480" as="sourcePoint"/>
                        <Array as="points">
                            <mxPoint x="730" y="480"/>
                            <mxPoint x="730" y="440"/>
                        </Array>
                    </mxGeometry>
                </mxCell>
                <mxCell id="jSb2tbMWPS0M8ItGvkOL-8" style="edgeStyle=none;html=1;entryX=0;entryY=0.5;entryDx=0;entryDy=0;" parent="s8eY3lmBnVh6mnitSegQ-1" source="njRrt-n6p6UCuZJra7xg-23" target="njRrt-n6p6UCuZJra7xg-20" edge="1">
                    <mxGeometry relative="1" as="geometry"/>
                </mxCell>
                <mxCell id="mSaDTx5yq42Bu9yDP1Ox-5" style="edgeStyle=none;html=1;exitX=0;exitY=0.5;exitDx=0;exitDy=0;entryX=0.5;entryY=0;entryDx=0;entryDy=0;" parent="s8eY3lmBnVh6mnitSegQ-1" source="njRrt-n6p6UCuZJra7xg-27" edge="1">
                    <mxGeometry relative="1" as="geometry">
                        <mxPoint x="360" y="450" as="targetPoint"/>
                        <Array as="points">
                            <mxPoint x="360" y="400"/>
                        </Array>
                    </mxGeometry>
                </mxCell>
                <mxCell id="mSaDTx5yq42Bu9yDP1Ox-8" style="edgeStyle=none;html=1;exitX=1;exitY=0.5;exitDx=0;exitDy=0;" parent="s8eY3lmBnVh6mnitSegQ-1" source="njRrt-n6p6UCuZJra7xg-27" target="njRrt-n6p6UCuZJra7xg-20" edge="1">
                    <mxGeometry relative="1" as="geometry">
                        <Array as="points">
                            <mxPoint x="980" y="400"/>
                            <mxPoint x="1080" y="400"/>
                        </Array>
                    </mxGeometry>
                </mxCell>
                <mxCell id="mSaDTx5yq42Bu9yDP1Ox-16" style="edgeStyle=none;html=1;entryX=0;entryY=0.5;entryDx=0;entryDy=0;" parent="s8eY3lmBnVh6mnitSegQ-1" source="jSb2tbMWPS0M8ItGvkOL-2" target="mSaDTx5yq42Bu9yDP1Ox-14" edge="1">
                    <mxGeometry relative="1" as="geometry"/>
                </mxCell>
                <mxCell id="3LACC5GUQdv1p67W-fW--1" style="edgeStyle=none;html=1;exitX=1;exitY=0.5;exitDx=0;exitDy=0;entryX=0;entryY=0.5;entryDx=0;entryDy=0;" parent="s8eY3lmBnVh6mnitSegQ-1" source="mSaDTx5yq42Bu9yDP1Ox-11" target="mSaDTx5yq42Bu9yDP1Ox-17" edge="1">
                    <mxGeometry relative="1" as="geometry"/>
                </mxCell>
                <mxCell id="3LACC5GUQdv1p67W-fW--6" style="edgeStyle=none;html=1;entryX=0;entryY=0.5;entryDx=0;entryDy=0;" parent="s8eY3lmBnVh6mnitSegQ-1" source="mSaDTx5yq42Bu9yDP1Ox-17" target="3LACC5GUQdv1p67W-fW--5" edge="1">
                    <mxGeometry relative="1" as="geometry"/>
                </mxCell>
                <mxCell id="3LACC5GUQdv1p67W-fW--10" style="edgeStyle=none;html=1;" parent="s8eY3lmBnVh6mnitSegQ-1" source="3LACC5GUQdv1p67W-fW--3" target="3LACC5GUQdv1p67W-fW--9" edge="1">
                    <mxGeometry relative="1" as="geometry"/>
                </mxCell>
                <mxCell id="yEsjIJw-PcLt3pC7XF7p-5" style="edgeStyle=none;html=1;exitX=1;exitY=0.5;exitDx=0;exitDy=0;" parent="s8eY3lmBnVh6mnitSegQ-1" source="njRrt-n6p6UCuZJra7xg-31" target="yEsjIJw-PcLt3pC7XF7p-4" edge="1">
                    <mxGeometry relative="1" as="geometry"/>
                </mxCell>
                <mxCell id="yEsjIJw-PcLt3pC7XF7p-10" style="edgeStyle=none;html=1;entryX=0;entryY=0.5;entryDx=0;entryDy=0;" parent="s8eY3lmBnVh6mnitSegQ-1" source="yEsjIJw-PcLt3pC7XF7p-7" target="yEsjIJw-PcLt3pC7XF7p-9" edge="1">
                    <mxGeometry relative="1" as="geometry"/>
                </mxCell>
                <mxCell id="mSaDTx5yq42Bu9yDP1Ox-1" value="会计分录_领料" style="swimlane;fontStyle=0;childLayout=stackLayout;horizontal=1;startSize=30;horizontalStack=0;resizeParent=1;resizeParentMax=0;resizeLast=0;collapsible=1;marginBottom=0;whiteSpace=wrap;html=1;fontFamily=仿宋;" parent="1" vertex="1">
                    <mxGeometry x="1250" y="90" width="150" height="80" as="geometry"/>
                </mxCell>
                <mxCell id="mSaDTx5yq42Bu9yDP1Ox-2" value="借：生产成本(直接材料)&lt;br&gt;贷：原材料" style="text;strokeColor=#666666;fillColor=#f5f5f5;align=left;verticalAlign=middle;spacingLeft=4;spacingRight=4;overflow=hidden;points=[[0,0.5],[1,0.5]];portConstraint=eastwest;rotatable=0;whiteSpace=wrap;html=1;fontFamily=仿宋;fontColor=#333333;" parent="mSaDTx5yq42Bu9yDP1Ox-1" vertex="1">
                    <mxGeometry y="30" width="150" height="50" as="geometry"/>
                </mxCell>
                <mxCell id="mSaDTx5yq42Bu9yDP1Ox-9" value="会计分录_根据标准成本" style="swimlane;fontStyle=0;childLayout=stackLayout;horizontal=1;startSize=30;horizontalStack=0;resizeParent=1;resizeParentMax=0;resizeLast=0;collapsible=1;marginBottom=0;whiteSpace=wrap;html=1;fontFamily=仿宋;" parent="1" vertex="1">
                    <mxGeometry x="1250" y="190" width="230" height="80" as="geometry"/>
                </mxCell>
                <mxCell id="mSaDTx5yq42Bu9yDP1Ox-10" value="借：生产成本(人工工资、制造费用)&lt;br&gt;贷：制造费用&lt;br&gt;&amp;nbsp; &amp;nbsp;&amp;nbsp;&lt;br&gt;&amp;nbsp; &amp;nbsp; &amp;nbsp;" style="text;strokeColor=#666666;fillColor=#f5f5f5;align=left;verticalAlign=middle;spacingLeft=4;spacingRight=4;overflow=hidden;points=[[0,0.5],[1,0.5]];portConstraint=eastwest;rotatable=0;whiteSpace=wrap;html=1;fontFamily=仿宋;fontColor=#333333;" parent="mSaDTx5yq42Bu9yDP1Ox-9" vertex="1">
                    <mxGeometry y="30" width="230" height="50" as="geometry"/>
                </mxCell>
                <mxCell id="mSaDTx5yq42Bu9yDP1Ox-18" value="会计分录_正常完工入库" style="swimlane;fontStyle=0;childLayout=stackLayout;horizontal=1;startSize=30;horizontalStack=0;resizeParent=1;resizeParentMax=0;resizeLast=0;collapsible=1;marginBottom=0;whiteSpace=wrap;html=1;fontFamily=仿宋;" parent="1" vertex="1">
                    <mxGeometry x="1250" y="330" width="150" height="80" as="geometry"/>
                </mxCell>
                <mxCell id="mSaDTx5yq42Bu9yDP1Ox-19" value="借：库存商品&lt;br&gt;贷：生产成本&lt;br&gt;&amp;nbsp; &amp;nbsp;&amp;nbsp;&lt;br&gt;&amp;nbsp; &amp;nbsp; &amp;nbsp;" style="text;strokeColor=#666666;fillColor=#f5f5f5;align=left;verticalAlign=middle;spacingLeft=4;spacingRight=4;overflow=hidden;points=[[0,0.5],[1,0.5]];portConstraint=eastwest;rotatable=0;whiteSpace=wrap;html=1;fontFamily=仿宋;fontColor=#333333;" parent="mSaDTx5yq42Bu9yDP1Ox-18" vertex="1">
                    <mxGeometry y="30" width="150" height="50" as="geometry"/>
                </mxCell>
                <mxCell id="3LACC5GUQdv1p67W-fW--12" value="会计分录_拆件入库" style="swimlane;fontStyle=0;childLayout=stackLayout;horizontal=1;startSize=30;horizontalStack=0;resizeParent=1;resizeParentMax=0;resizeLast=0;collapsible=1;marginBottom=0;whiteSpace=wrap;html=1;fontFamily=仿宋;" parent="1" vertex="1">
                    <mxGeometry x="1430" y="330" width="150" height="80" as="geometry"/>
                </mxCell>
                <mxCell id="3LACC5GUQdv1p67W-fW--13" value="借：原材料or库存商品&lt;br&gt;贷：生产成本&lt;br&gt;&amp;nbsp; &amp;nbsp;&amp;nbsp;&lt;br&gt;&amp;nbsp; &amp;nbsp; &amp;nbsp;" style="text;strokeColor=#666666;fillColor=#f5f5f5;align=left;verticalAlign=middle;spacingLeft=4;spacingRight=4;overflow=hidden;points=[[0,0.5],[1,0.5]];portConstraint=eastwest;rotatable=0;whiteSpace=wrap;html=1;fontFamily=仿宋;fontColor=#333333;" parent="3LACC5GUQdv1p67W-fW--12" vertex="1">
                    <mxGeometry y="30" width="150" height="50" as="geometry"/>
                </mxCell>
                <mxCell id="yEsjIJw-PcLt3pC7XF7p-1" value="会计分录_报废" style="swimlane;fontStyle=0;childLayout=stackLayout;horizontal=1;startSize=30;horizontalStack=0;resizeParent=1;resizeParentMax=0;resizeLast=0;collapsible=1;marginBottom=0;whiteSpace=wrap;html=1;fontFamily=仿宋;" parent="1" vertex="1">
                    <mxGeometry x="1250" y="570" width="150" height="130" as="geometry"/>
                </mxCell>
                <mxCell id="yEsjIJw-PcLt3pC7XF7p-2" value="借：待处理财产损溢&lt;br&gt;贷：库存商品&lt;br&gt;&amp;nbsp; &amp;nbsp; 进项税转出&amp;nbsp; &amp;nbsp;&amp;nbsp;&lt;br&gt;&amp;nbsp; &amp;nbsp; &amp;nbsp;" style="text;strokeColor=#666666;fillColor=#f5f5f5;align=left;verticalAlign=middle;spacingLeft=4;spacingRight=4;overflow=hidden;points=[[0,0.5],[1,0.5]];portConstraint=eastwest;rotatable=0;whiteSpace=wrap;html=1;fontFamily=仿宋;fontColor=#333333;" parent="yEsjIJw-PcLt3pC7XF7p-1" vertex="1">
                    <mxGeometry y="30" width="150" height="50" as="geometry"/>
                </mxCell>
                <mxCell id="yEsjIJw-PcLt3pC7XF7p-15" value="借：管理费用or营业外支出&lt;br&gt;贷：待处理财产损溢&amp;nbsp;&lt;br&gt;&amp;nbsp; &amp;nbsp; &amp;nbsp;" style="text;strokeColor=#666666;fillColor=#f5f5f5;align=left;verticalAlign=middle;spacingLeft=4;spacingRight=4;overflow=hidden;points=[[0,0.5],[1,0.5]];portConstraint=eastwest;rotatable=0;whiteSpace=wrap;html=1;fontFamily=仿宋;fontColor=#333333;" parent="yEsjIJw-PcLt3pC7XF7p-1" vertex="1">
                    <mxGeometry y="80" width="150" height="50" as="geometry"/>
                </mxCell>
                <mxCell id="yEsjIJw-PcLt3pC7XF7p-13" value="会计分录" style="swimlane;fontStyle=0;childLayout=stackLayout;horizontal=1;startSize=30;horizontalStack=0;resizeParent=1;resizeParentMax=0;resizeLast=0;collapsible=1;marginBottom=0;whiteSpace=wrap;html=1;fontFamily=仿宋;" parent="1" vertex="1">
                    <mxGeometry x="1250" y="930" width="150" height="80" as="geometry"/>
                </mxCell>
                <mxCell id="yEsjIJw-PcLt3pC7XF7p-14" value="借：资产减值损失&lt;br&gt;贷：存货跌价准备&amp;nbsp; &amp;nbsp;&amp;nbsp;&lt;br&gt;&amp;nbsp; &amp;nbsp; &amp;nbsp;" style="text;strokeColor=#666666;fillColor=#f5f5f5;align=left;verticalAlign=middle;spacingLeft=4;spacingRight=4;overflow=hidden;points=[[0,0.5],[1,0.5]];portConstraint=eastwest;rotatable=0;whiteSpace=wrap;html=1;fontFamily=仿宋;fontColor=#333333;" parent="yEsjIJw-PcLt3pC7XF7p-13" vertex="1">
                    <mxGeometry y="30" width="150" height="50" as="geometry"/>
                </mxCell>
                <mxCell id="yEsjIJw-PcLt3pC7XF7p-17" value="会计分录_报废出售" style="swimlane;fontStyle=0;childLayout=stackLayout;horizontal=1;startSize=30;horizontalStack=0;resizeParent=1;resizeParentMax=0;resizeLast=0;collapsible=1;marginBottom=0;whiteSpace=wrap;html=1;fontFamily=仿宋;" parent="1" vertex="1">
                    <mxGeometry x="1440" y="570" width="150" height="210" as="geometry"/>
                </mxCell>
                <mxCell id="yEsjIJw-PcLt3pC7XF7p-18" value="借：待处理财产损溢&lt;br&gt;贷：库存商品&lt;br&gt;&amp;nbsp; &amp;nbsp; 进项税转出&amp;nbsp; &amp;nbsp;&amp;nbsp;&lt;br&gt;&amp;nbsp; &amp;nbsp; &amp;nbsp;" style="text;strokeColor=#666666;fillColor=#f5f5f5;align=left;verticalAlign=middle;spacingLeft=4;spacingRight=4;overflow=hidden;points=[[0,0.5],[1,0.5]];portConstraint=eastwest;rotatable=0;whiteSpace=wrap;html=1;fontFamily=仿宋;fontColor=#333333;" parent="yEsjIJw-PcLt3pC7XF7p-17" vertex="1">
                    <mxGeometry y="30" width="150" height="50" as="geometry"/>
                </mxCell>
                <mxCell id="yEsjIJw-PcLt3pC7XF7p-19" value="借：银行存款&lt;br&gt;贷：其他业务收入&lt;br&gt;&amp;nbsp; &amp;nbsp; &amp;nbsp;销项税&lt;br&gt;&lt;br&gt;借：其他业务成本&lt;br&gt;贷：待处理财产损溢&amp;nbsp;&lt;br&gt;&amp;nbsp; &amp;nbsp; &amp;nbsp;" style="text;strokeColor=#666666;fillColor=#f5f5f5;align=left;verticalAlign=middle;spacingLeft=4;spacingRight=4;overflow=hidden;points=[[0,0.5],[1,0.5]];portConstraint=eastwest;rotatable=0;whiteSpace=wrap;html=1;fontFamily=仿宋;fontColor=#333333;" parent="yEsjIJw-PcLt3pC7XF7p-17" vertex="1">
                    <mxGeometry y="80" width="150" height="130" as="geometry"/>
                </mxCell>
            </root>
        </mxGraphModel>
    </diagram>
</mxfile>